<?xml version="1.0" standalone="no"?>
<!DOCTYPE svg PUBLIC "-//W3C//DTD SVG 1.1//EN" "http://www.w3.org/Graphics/SVG/1.1/DTD/svg11.dtd" >
<svg xmlns="http://www.w3.org/2000/svg" xmlns:xlink="http://www.w3.org/1999/xlink" version="1.1">
<metadata></metadata>
<defs>
<font id="made_canvasblack" horiz-adv-x="698" >
<font-face units-per-em="2048" ascent="1638" descent="-410" />
<missing-glyph horiz-adv-x="430" />
<glyph horiz-adv-x="0" />
<glyph horiz-adv-x="682" />
<glyph unicode=" "  horiz-adv-x="430" />
<glyph unicode="&#x09;" horiz-adv-x="430" />
<glyph unicode="&#xa0;" horiz-adv-x="430" />
<glyph unicode="!" horiz-adv-x="356" d="M61 96q0 47 35 82t82 35q49 0 83 -34.5t34 -82.5q0 -49 -33.5 -82.5t-83.5 -33.5q-48 0 -82.5 33.5t-34.5 82.5zM63 1294q-3 60 25 100t90 40q63 0 91.5 -40.5t23.5 -99.5q-5 -68 -42.5 -257.5t-47.5 -293.5q-8 -90 -12.5 -185.5t-5.5 -145.5l-1 -50h-6h-4q0 178 -20 381 q-11 107 -48 296t-43 255z" />
<glyph unicode="&#x22;" horiz-adv-x="385" d="M66 1333q-14 101 55 101t55 -101q-4 -31 -26 -90t-25 -102h-4h-6q-2 44 -23.5 103.5t-25.5 88.5zM209 1333q-14 101 55 101t55 -101q-4 -29 -25.5 -88.5t-23.5 -103.5h-6h-4q-3 43 -25 102t-26 90z" />
<glyph unicode="#" horiz-adv-x="1075" d="M61 391v10h291v347h-291v10h291v317h10v-317h353v317h8v-317h291v-10h-291v-347h291v-10h-291v-317h-8v317h-353v-317h-10v317h-291zM362 401h353v347h-353v-347z" />
<glyph unicode="$" horiz-adv-x="1103" d="M61 -74v527h9q0 -32 10.5 -75.5t31 -96.5t56.5 -103.5t82 -92.5t113.5 -67.5t144.5 -25.5q27 0 39 2v510q-35 23 -103 64t-110.5 67.5t-98 72.5t-87.5 90t-55 108t-23 138q0 182 133.5 296t343.5 114v199h10v-199q49 -1 90.5 -9.5t96 -26t75.5 -23.5q59 -16 87 8t28 106 h10v-526h-10q0 125 -43.5 227.5t-130.5 167t-203 66.5v-488q30 -20 78.5 -49.5t83.5 -51t80 -52.5t77 -58.5t65.5 -65t54 -75.5t33.5 -86.5t13 -101.5q0 -182 -128 -302t-357 -132v-199h-10v199h-35q-124 0 -268 38q-28 7 -45 10.5t-44.5 3.5t-43.5 -9.5t-28.5 -34 t-12.5 -64.5h-9zM352 1231q0 -81 50 -142.5t145 -125.5v481q-91 -3 -143 -66.5t-52 -146.5zM557 -6q96 14 142 75.5t46 135.5q0 92 -49 161t-139 132v-504z" />
<glyph unicode="%" horiz-adv-x="1155" d="M61 1165q0 142 69.5 214.5t180.5 74.5q112 0 182 -73t70 -216q0 -141 -70 -213.5t-182 -72.5q-111 0 -180.5 72.5t-69.5 213.5zM205 1165q0 -280 106 -280q109 0 109 280q0 281 -109 281q-106 0 -106 -281zM305 0l516 1454h10l-516 -1454h-10zM592 266q0 143 70 216 t182 73q111 0 180.5 -73t69.5 -216q0 -141 -69.5 -213.5t-180.5 -72.5q-112 0 -182 72.5t-70 213.5zM735 266q0 -280 109 -280q106 0 106 280q0 281 -106 281q-109 0 -109 -281z" />
<glyph unicode="&#x26;" horiz-adv-x="1193" d="M63 375q-3 179 121 280t326 107q-157 35 -256.5 134t-99.5 234q1 71 28 128t70 92.5t100.5 59t113.5 33t114 9.5h24l-10 219h31l-11 -219q81 -5 145 -34t101 -72.5t58.5 -96t20 -107t-16 -104t-48.5 -89t-79 -58.5v31q51 30 81.5 81t37 107.5t-10.5 115.5t-53 106.5 t-97.5 78.5t-138.5 33h-10q-93 -1 -144.5 -92.5t-51.5 -231.5q0 -144 60.5 -251t166.5 -107h70v-14h-121q-110 0 -173.5 -99t-54.5 -278q5 -96 33.5 -171.5t71.5 -120.5t93.5 -68t104.5 -23q104 0 190.5 32.5t142.5 87.5t87 125t31 146q0 129 -68.5 216.5t-158.5 98.5v29 q115 -22 182.5 -113.5t64.5 -218.5q-2 -79 -33 -150.5t-88.5 -129.5t-150 -93.5t-209.5 -37.5l10 -224h-30l10 224h-4q-113 0 -214.5 26t-181 75t-127.5 125t-49 169z" />
<glyph unicode="'" horiz-adv-x="239" d="M66 1333q-14 101 53 101q69 0 55 -101q-4 -29 -25.5 -88.5t-23.5 -103.5h-6h-4q-2 44 -23.5 103.5t-25.5 88.5z" />
<glyph unicode="(" horiz-adv-x="708" d="M61 614q0 123 21.5 246.5t69 239.5t114.5 205.5t165.5 143.5t215.5 54v-10q-75 0 -137.5 -50t-105.5 -135t-73 -198.5t-43.5 -238.5t-13.5 -257q0 -167 22.5 -320t66.5 -280t117.5 -202.5t166.5 -75.5v-10q-117 0 -215.5 54t-165.5 143t-114.5 205.5t-69 239.5t-21.5 246 z" />
<glyph unicode=")" horiz-adv-x="708" d="M61 -264q93 0 166.5 75.5t117.5 202.5t66.5 280t22.5 320q0 132 -13.5 257t-43.5 238.5t-73 198.5t-105.5 135t-137.5 50v10q116 0 214.5 -54t165.5 -143.5t114.5 -205.5t69.5 -239.5t22 -246.5t-22 -246.5t-69.5 -239.5t-114.5 -205t-165.5 -143t-214.5 -54v10z" />
<glyph unicode="*" horiz-adv-x="659" d="M66 1495q8 24 29.5 30t60.5 -12q19 -9 79 -47t93 -51q-2 35 -21 104.5t-22 90.5q-6 40 8 60t39 20q24 0 37.5 -20t7.5 -60q-3 -21 -21 -90.5t-20 -104.5q32 14 90.5 51t77.5 47q40 18 61.5 12t28.5 -30q8 -24 -7 -43t-55 -25q-24 -4 -93 -8t-103 -12q25 -25 80.5 -65.5 t72.5 -55.5q30 -28 33 -53t-16 -37q-46 -37 -86 33q-12 19 -41 81.5t-49 90.5q-19 -27 -47 -89.5t-41 -82.5q-22 -36 -46 -43t-40 10q-19 12 -17.5 37.5t31.5 52.5q16 15 73 55.5t81 65.5q-33 8 -103 12t-94 8q-40 6 -54 25t-7 43z" />
<glyph unicode="+" d="M61 569v11h283v282h10v-282h283v-11h-283v-282h-10v282h-283z" />
<glyph unicode="," horiz-adv-x="358" d="M61 96q0 48 34 82.5t83 34.5q47 0 80.5 -33t36.5 -84q1 -38 -2.5 -73t-15.5 -71.5t-31.5 -63t-53 -42.5t-77.5 -14v8q47 -4 82 17.5t52 57t24.5 67.5t7.5 59q-14 -28 -41.5 -44.5t-61.5 -16.5q-50 0 -83.5 33.5t-33.5 82.5z" />
<glyph unicode="-" horiz-adv-x="579" d="M61 569v11h457v-11h-457z" />
<glyph unicode="." horiz-adv-x="356" d="M61 96q0 47 35 82t82 35q49 0 83 -34.5t34 -82.5q0 -49 -33.5 -82.5t-83.5 -33.5q-48 0 -82.5 33.5t-34.5 82.5z" />
<glyph unicode="/" horiz-adv-x="430" d="M61 0l297 1454h11l-297 -1454h-11z" />
<glyph unicode="0" horiz-adv-x="1193" d="M61 719q0 335 151 535t386 200t385 -200t150 -535q0 -224 -70 -392.5t-190.5 -256.5t-274.5 -88t-275 88t-191.5 256.5t-70.5 392.5zM369 719q0 -140 12.5 -265t38.5 -231t72 -168.5t106 -62.5t106 62.5t72 168.5t38.5 231t12.5 265q0 139 -12.5 263.5t-38.5 230.5 t-72 168.5t-106 62.5t-106 -62.5t-72 -168.5t-38.5 -230.5t-12.5 -263.5z" />
<glyph unicode="1" horiz-adv-x="677" d="M41 1276v10l455 148h12v-1198q1 -52 3 -82.5t9.5 -61.5t21 -47t37 -25.5t58.5 -9.5v-10h-561v10q82 0 105.5 50t23.5 176v983q0 62 -30 73.5t-134 -16.5z" />
<glyph unicode="2" horiz-adv-x="1040" d="M61 0v10q28 33 86 99.5t86.5 99.5t79 94.5t76.5 98.5t66.5 96.5t62 103.5t48.5 104.5t41.5 114.5t25.5 119t14 131q2 60 -0.5 108.5t-13.5 100t-31 86t-55 56.5t-84 22q-79 0 -142.5 -29.5t-100.5 -76.5t-54.5 -106t-12 -116t35 -109t79.5 -83v-35q-53 24 -88 76t-47 114 t4 129t55.5 121.5t116 89.5t178.5 35q66 0 127.5 -8t129 -32.5t116.5 -63t81 -105t32 -153.5q0 -55 -17 -111.5t-44 -106t-72 -105.5t-89 -101.5t-107.5 -103.5t-115.5 -102.5t-125 -107.5t-124 -110h405q64 0 104.5 4t79 17t63 39.5t38.5 68.5h10l-41 -373h-877z" />
<glyph unicode="3" horiz-adv-x="1073" d="M61 80v31q61 -50 161 -84.5t188 -34.5q118 0 194.5 96t83.5 285q12 377 -227 377h-121v14h78q205 0 205 358q0 72 -8 126.5t-28 100.5t-58.5 70.5t-94.5 24.5q-79 0 -142.5 -30t-101 -77.5t-55 -106.5t-11.5 -116.5t36 -108.5t82 -81v-35q-41 17 -72 51t-48.5 77t-21 92 t6.5 97.5t37.5 93.5t69 79t105 54.5t140.5 20.5q84 0 159 -15.5t144.5 -50.5t111 -101t41.5 -157q0 -138 -108 -240.5t-272 -125.5q138 3 247 -39.5t172 -133t56 -214.5q-7 -130 -83 -220t-201 -132.5t-292 -42.5q-185 0 -373 98z" />
<glyph unicode="4" horiz-adv-x="1075" d="M0 338v10l844 1086h14v-1086h217v-10h-217v-102q0 -126 23.5 -176t105.5 -50v-10h-561v10q82 0 105.5 50t23.5 176v102h-555zM10 348h545v703z" />
<glyph unicode="5" horiz-adv-x="972" d="M61 49v31q110 -88 269 -88q125 0 193 106t73 305q2 73 -7.5 138.5t-40.5 129t-80.5 99t-136.5 36.5t-200 -46l39 674h375q52 1 80.5 3t57.5 8.5t45 20.5t30 36t26 57h11l-19 -367h-610q-4 -63 -10 -165t-10 -165.5t-5 -85.5q241 99 415 71.5t268.5 -148t84.5 -291.5 q-6 -97 -42 -173t-89 -122.5t-125.5 -77t-145 -42t-153.5 -11.5q-90 0 -156.5 15t-136.5 52z" />
<glyph unicode="6" horiz-adv-x="1083" d="M63 477q-10 149 30 284t113 237t176.5 189t214.5 146t234 101v-11q-83 -59 -152 -128.5t-115 -133.5t-84.5 -138.5t-61 -132.5t-43.5 -126q68 68 145 80q138 20 248 -17.5t177.5 -131.5t74.5 -232q6 -107 -23 -194t-85.5 -145.5t-132.5 -93t-167 -44.5q-76 -9 -150 2.5 t-143.5 47t-123 92.5t-89.5 147t-43 202zM365 393q16 -201 70.5 -304t156.5 -97q51 4 82.5 41t43 96.5t15 136.5t-3.5 160q-4 88 -17 160.5t-37 133.5t-65 91.5t-96 22.5q-66 -10 -102.5 -67t-46 -148t-0.5 -226z" />
<glyph unicode="7" horiz-adv-x="960" d="M41 1063l39 371h840v-11q-96 -112 -160.5 -205.5t-124.5 -217.5t-94 -261.5t-54 -322.5t-20 -416h-293q0 314 146.5 623.5t400.5 568.5h-385q-64 -1 -104.5 -5.5t-79.5 -17.5t-63 -39t-38 -67h-10z" />
<glyph unicode="8" horiz-adv-x="1136" d="M63 299q-6 66 10.5 121.5t46 94.5t80 74.5t99 59.5t117.5 51q-67 44 -115 85t-92 95.5t-63.5 120.5t-12.5 140q9 88 52 152.5t106.5 97.5t128 48t133.5 15q45 0 90.5 -6t96.5 -18.5t94.5 -36t79 -56t55 -81.5t18.5 -109q-2 -57 -23 -104.5t-52 -79t-74 -56t-82 -37.5 t-82 -22q21 -15 76.5 -52t94 -63.5t89 -73.5t80 -92t47.5 -109t10 -134q-18 -163 -152 -252.5t-339 -89.5q-134 0 -244.5 32.5t-186.5 106t-86 178.5zM322 334q10 -153 81.5 -247.5t176.5 -94.5q55 0 102 17t84.5 54.5t48 96.5t-7.5 143q-7 30 -22.5 59.5t-33.5 54.5 t-46 53.5t-51 49t-58.5 48t-58 44t-60 43t-55.5 39.5q-57 -68 -83 -153t-17 -207zM391 1141q27 -85 90 -145.5t189 -141.5q40 67 56.5 129t16.5 154q0 138 -49.5 222.5t-140.5 84.5q-106 0 -154 -89.5t-8 -213.5z" />
<glyph unicode="9" horiz-adv-x="1083" d="M63 973q-7 103 24.5 192t91 150t140 97.5t170.5 41.5q79 4 151 -9t140 -48.5t118.5 -92t83.5 -145.5t38 -201q7 -151 -33.5 -286.5t-113 -237.5t-175.5 -188t-213 -144t-233 -100v10q102 72 182.5 158t133 176t84.5 165t57 161q-65 -65 -136 -76q-211 -30 -353 70 t-157 307zM350.5 1168.5q-3.5 -77.5 3.5 -160.5q6 -116 29 -206.5t71 -149t115 -50.5q98 10 131 122t19 318q-16 203 -70.5 307.5t-156.5 94.5q-51 -4 -83 -41.5t-43.5 -97t-15 -137z" />
<glyph unicode=":" horiz-adv-x="358" d="M61 96q0 47 35 82t82 35q49 0 83 -34.5t34 -82.5q0 -49 -33.5 -82.5t-83.5 -33.5q-48 0 -82.5 33.5t-34.5 82.5zM63 741q0 47 35 82t82 35q49 0 83 -34.5t34 -82.5q0 -49 -33.5 -82.5t-83.5 -33.5q-48 0 -82.5 33.5t-34.5 82.5z" />
<glyph unicode=";" horiz-adv-x="358" d="M61 96q0 47 35 82t82 35t80.5 -33t36.5 -84q2 -48 -5 -92t-25.5 -85.5t-57 -65t-92.5 -21.5v8q47 -4 82 17.5t52 57t24.5 67.5t7.5 59q-14 -28 -41.5 -44.5t-61.5 -16.5q-48 0 -82.5 33.5t-34.5 82.5zM61 741q0 47 35 82t82 35q49 0 83 -34.5t34 -82.5q0 -49 -33.5 -82.5 t-83.5 -33.5q-48 0 -82.5 33.5t-34.5 82.5z" />
<glyph unicode="&#x3c;" horiz-adv-x="548" d="M61 698v11l426 348v-10l-419 -342l419 -343v-10z" />
<glyph unicode="=" d="M61 451v10h576v-10h-576zM61 688v10h576v-10h-576z" />
<glyph unicode="&#x3e;" horiz-adv-x="550" d="M61 352v10l422 343l-422 342v10l428 -348v-11z" />
<glyph unicode="?" horiz-adv-x="841" d="M65 1140q-7 59 10 114.5t50.5 100t96 72t145.5 27.5q60 0 117.5 -9t118 -34t102 -64t62 -104.5t5.5 -150.5q-10 -58 -39.5 -112.5t-69 -98t-85 -88t-89 -91.5t-79 -98t-57 -118.5t-21.5 -143.5h-10q-7 109 15 214.5t53.5 177.5t67 167.5t48.5 173.5q12 77 12.5 136.5 t-13 115.5t-55 86.5t-108.5 30.5q-65 0 -117 -24t-81.5 -64.5t-46 -90t-12.5 -103.5t20.5 -103t51.5 -89.5t81 -62.5v-30q-49 18 -87.5 59t-58.5 93t-27 111zM219 96q0 47 35 82t82 35q49 0 83 -34.5t34 -82.5q0 -49 -33.5 -82.5t-83.5 -33.5q-48 0 -82.5 33.5t-34.5 82.5z " />
<glyph unicode="@" horiz-adv-x="1443" d="M61 498q0 349 177 532q169 178 481 178q308 0 489 -196q84 -89 129 -211.5t45 -261.5q0 -52 -4 -101t-12.5 -105t-26 -101.5t-42 -84t-63 -60t-85.5 -21.5q-273 0 -305 159q-56 -114 -154 -145q-40 -12 -85.5 -15.5t-92.5 4.5t-84 27t-60 57t-22 91q1 71 36 111.5 t99 64.5q-31 49 -48 125t-5 166q6 40 25.5 79.5t52.5 74t85.5 56t115.5 21.5q82 0 149 -16t122.5 -50.5t86.5 -95.5t31 -145v-375q0 -41 1 -64t5.5 -49t13.5 -39t24.5 -21.5t39.5 -8.5q31 0 63 23t63 72.5t50.5 144.5t19.5 221q0 297 -181.5 480t-475.5 183 q-315 0 -482 -182t-167 -522q0 -317 156 -490.5t440 -173.5q94 0 181.5 18t146 44t103.5 52t66 44l21 18l6 -4q-7 -7 -23 -20t-65 -43.5t-106 -54.5t-146 -43t-184 -19q-272 0 -430 158q-175 178 -175 514zM432 698q-8 -57 3.5 -134.5t51.5 -141.5q43 15 139 33t140 32 q47 18 74 39v158q0 50 -2 82t-9.5 67.5t-21.5 55.5t-39 33.5t-61 13.5q-60 0 -116.5 -22.5t-103 -78.5t-55.5 -137zM582 283q-8 -120 26.5 -171t110.5 -14q78 41 123 140q-2 10 -2 30v248q-27 -17 -66 -33q-8 -3 -35.5 -12.5t-38 -14t-33 -16t-32.5 -23.5t-23.5 -31 t-20.5 -45t-9 -58z" />
<glyph unicode="A" horiz-adv-x="1478" d="M0 0v10q100 19 174 94t133 224l432 1106h45q402 -1016 455 -1147q56 -134 88 -181q64 -96 152 -96v-10h-607v10q76 0 88 38q3 8 3 21q0 43 -33 130q-9 25 -28 76t-50 132.5t-53 139.5h-396q-13 -33 -26.5 -67.5t-21 -53.5t-9.5 -25q-32 -88 -36 -177v-19q0 -77 28 -133 q32 -62 98 -62v-10h-436zM406 555h389l-82.5 214.5t-76 198t-34.5 89.5q-33 -84 -101 -259t-95 -243z" />
<glyph unicode="B" horiz-adv-x="1284" d="M61 0v10q82 0 105.5 50t23.5 176v962q0 125 -23.5 175t-105.5 50v11h615q80 0 156 -19t146 -58.5t112.5 -111.5t42.5 -168q0 -79 -28.5 -141.5t-79 -103.5t-110.5 -66t-133 -37q66 -1 128.5 -13.5t122 -41t103.5 -69.5t70.5 -104t26.5 -139q0 -78 -28.5 -140.5t-75 -103 t-109.5 -68t-128.5 -39t-135.5 -11.5h-695zM508 236q1 -52 3 -82.5t9.5 -61.5t21 -47t37 -25.5t58.5 -9.5h27q112 0 171.5 94.5t59.5 257.5q0 162 -61 259.5t-170 97.5h-156v-483zM508 729h121q44 0 76 21.5t49 53t27.5 81t13 92.5t2.5 100q0 63 -10 123t-29.5 110.5 t-52.5 81.5t-74 31q-34 0 -57 -10.5t-35.5 -25.5t-19.5 -47.5t-8.5 -61t-2.5 -80.5v-469z" />
<glyph unicode="C" horiz-adv-x="1456" d="M66 649q-2 34 -2 66q0 139 44 259q56 147 162 245t245.5 156.5t301.5 72.5q31 3 66 3q133 0 309 -46q33 -9 54 -12.5t45 -1.5t37.5 14t22.5 38t9 66h10v-516h-10q0 41 -21 98.5t-66 122t-107 118.5q-60 52 -152 84q-73 25 -154 26q-20 0 -41 -2q-112 -10 -196.5 -85.5 t-129.5 -189.5t-63 -242q-12 -82 -11 -164q0 -45 3 -91q8 -101 33.5 -197t70.5 -183.5t104 -153.5q60 -64 142 -102q78 -36 167 -36h9q244 5 447 199v-33q-98 -79 -196.5 -122.5t-250.5 -53.5q-38 -2 -76 -2q-89 0 -175 13q-122 19 -233 70t-195.5 129t-138.5 194.5 t-64 258.5z" />
<glyph unicode="D" horiz-adv-x="1533" d="M61 0v10q82 0 105.5 50t23.5 176v962q0 125 -23.5 175t-105.5 50v11h705q163 0 296.5 -53.5t223 -149t138.5 -227t49 -287.5q0 -207 -83.5 -369t-245.5 -255t-378 -93h-705zM508 236q0 -126 23.5 -176t105.5 -50h39q102 0 179 38t133.5 120.5t86 220t29.5 328.5 t-29.5 328.5t-86 219.5t-133.5 120t-179 38h-39q-82 0 -105.5 -50t-23.5 -175v-962z" />
<glyph unicode="E" horiz-adv-x="1200" d="M61 0v10q82 0 105.5 50t23.5 176v962q0 125 -23.5 175t-105.5 50v11h949l69 -297h-10q-24 55 -56.5 101.5t-78.5 90.5t-109.5 69t-136.5 25h-51q-35 0 -58.5 -10t-37 -25.5t-21 -46.5t-9.5 -61.5t-3 -81.5v-479h31q117 0 201.5 79.5t84.5 184.5h11v-537h-11 q0 106 -84.5 185.5t-201.5 79.5h-31v-475q1 -52 3 -82.5t9.5 -61.5t21 -47t37 -25.5t58.5 -9.5h115q73 0 139.5 35t116 93t82.5 111.5t59 112.5h10l-84 -362h-1014z" />
<glyph unicode="F" horiz-adv-x="1099" d="M61 0v10q82 0 105.5 50t23.5 176v962q0 125 -23.5 175t-105.5 50v11h949l69 -297h-10q-24 55 -56.5 101.5t-78.5 90.5t-110 69t-138 25h-49q-35 0 -58.5 -10t-37 -25.5t-21 -46.5t-9.5 -61.5t-3 -81.5v-479h31q117 0 201.5 79.5t84.5 184.5h11v-537h-11 q0 106 -84.5 185.5t-201.5 79.5h-31v-475q1 -52 3 -82.5t9.5 -61.5t21 -47t37 -25.5t58.5 -9.5v-10h-576z" />
<glyph unicode="G" horiz-adv-x="1564" d="M66 649q-2 33 -2 64q0 107 26 203q34 124 103 215.5t167 159.5t214 107t245 50q32 3 66 3q134 0 307 -46q33 -9 54 -12.5t45 -1.5t37.5 14t22.5 38t9 66h10v-516h-10q0 41 -21 98.5t-66 122t-106.5 118t-152.5 84.5q-73 26 -154 26q-20 0 -41 -2q-111 -10 -195.5 -85.5 t-129.5 -189t-63 -241.5q-11 -80 -11 -159q0 -49 4 -97q8 -101 33 -197t69.5 -183.5t104 -153t141.5 -102.5q78 -36 167 -36h9q67 0 129 16v404q0 124 -23.5 173.5t-105.5 49.5v10h576v-10q-35 0 -58.5 -9.5t-37 -25t-21 -46t-9.5 -61t-3 -81.5v-436h-9q0 35 -18 53t-52 19 q-7 1 -15 1q-25 0 -49 -4q-31 -5 -72 -16q-93 -38 -232 -47q-38 -2 -76 -2q-89 0 -175 13q-122 19 -232.5 70t-195 129t-139 194.5t-64.5 258.5z" />
<glyph unicode="H" horiz-adv-x="1574" d="M61 0v10q35 0 58.5 10t37 25.5t21 47t9.5 62t3 81.5v962q-1 51 -3 81.5t-9.5 61.5t-21 46.5t-37 25.5t-58.5 10v11h574v-11q-34 0 -57.5 -9.5t-37 -25.5t-21 -46.5t-9.5 -62t-2 -81.5v-477h559v477q0 125 -23.5 175t-105.5 50v11h575v-11q-35 0 -58.5 -10t-37 -25.5 t-21 -46.5t-9.5 -61.5t-3 -81.5v2v-964q1 -51 3 -81.5t9.5 -62t21 -47t37 -25.5t58.5 -10v-10h-575v10q82 0 105.5 50.5t23.5 175.5v475h-559v-475q0 -50 2 -81.5t9.5 -62t21 -46.5t37 -26t57.5 -10v-10h-574z" />
<glyph unicode="I" d="M61 0v10q35 0 58.5 9.5t37 25.5t21 47t9.5 61.5t3 82.5v962q-1 51 -3 81.5t-9.5 61.5t-21 46.5t-37 25.5t-58.5 10v11h576v-11q-82 0 -105.5 -50t-23.5 -175v-962q0 -126 23.5 -176t105.5 -50v-10h-576z" />
<glyph unicode="J" horiz-adv-x="772" d="M61 -389q98 36 140.5 127t42.5 272v1188q0 125 -23.5 175t-105.5 50v11h575v-11q-35 0 -58.5 -10t-37 -25.5t-21 -46.5t-9.5 -61.5t-3 -81.5v-1114q0 -101 -31.5 -183t-81.5 -134.5t-118 -89.5t-133.5 -54.5t-135.5 -23.5v12z" />
<glyph unicode="K" horiz-adv-x="1505" d="M61 0v10q82 0 105.5 50t23.5 176v962q0 125 -23.5 175t-105.5 50v11h576v-11q-35 0 -58.5 -10t-37 -25.5t-21 -46.5t-9.5 -61.5t-3 -81.5v-508q299 268 453 422q72 73 101 146q16 41 16 73q0 26 -10 46q-23 46 -93 46v11h436v-11q-36 0 -86.5 -25.5t-93.5 -56 t-102.5 -83.5t-88 -81t-75.5 -75l-15 -15q-65 -65 -151 -145q56 -81 436 -666q72 -110 149.5 -188t120.5 -78v-10h-471l-461 737q-49 -43 -65 -57v-444q1 -52 3 -82.5t9.5 -61.5t21 -47t37 -25.5t58.5 -9.5v-10h-576z" />
<glyph unicode="L" horiz-adv-x="1179" d="M61 0v10q82 0 105.5 50t23.5 176v962q0 125 -23.5 175t-105.5 50v11h576v-11q-35 0 -58.5 -10t-37 -25.5t-21 -46.5t-9.5 -61.5t-3 -81.5v-962q1 -52 3 -82.5t9.5 -61.5t21 -47t37 -25.5t58.5 -9.5h115q73 0 139.5 35t116 93t82.5 111.5t59 112.5h10l-86 -362h-1012z" />
<glyph unicode="M" horiz-adv-x="1869" d="M41 0v10q108 0 181 105t73 282v891q-98 135 -199 135v11h477l441 -846l348 846h446v-11q-82 0 -105.5 -50t-23.5 -175v-962q0 -126 23.5 -176t105.5 -50v-10h-575v10q35 0 58.5 9.5t37 25.5t21 47t9.5 61.5t3 82.5v1175l-463 -1122h-53q-504 934 -541 987v-879 q0 -178 72 -282.5t180 -104.5v-10h-516z" />
<glyph unicode="N" horiz-adv-x="1605" d="M41 0v10q108 0 181 105t73 282v834q-63 88 -121.5 140t-118.5 52v11h477l771 -1004v606q0 177 -73 282t-181 105v11h516v-11q-108 0 -180 -104.5t-72 -282.5v-1036h-60q-34 40 -479.5 612t-468.5 605v-820q0 -178 72 -282.5t180 -104.5v-10h-516z" />
<glyph unicode="O" horiz-adv-x="1714" d="M66 655q-3 37 -3 73q0 124 37 235q48 143 143.5 245.5t232.5 166t300 77.5q40 3 79 3q90 0 177 -16q125 -23 232 -78t190.5 -135t135 -189.5t61.5 -235.5q3 -37 3 -72q0 -131 -38 -247q-48 -148 -142 -252t-230.5 -169t-299.5 -79q-39 -3 -78 -3q-123 -1 -239 31 q-153 42 -272.5 127.5t-197 220t-91.5 297.5zM430 684q20 -196 96 -358q74 -162 186 -252q101 -82 210 -83q11 0 22 1q117 13 200.5 117.5t120.5 273.5q27 123 27 264q0 53 -4 109q-11 149 -58.5 281.5t-117.5 223t-159 139.5q-78 43 -157 43q-11 0 -22 -1 q-117 -12 -204 -118q-86 -106 -123 -276q-24 -110 -24 -231q0 -65 7 -133z" />
<glyph unicode="P" horiz-adv-x="1230" d="M61 0v10q82 0 105.5 50.5t23.5 175.5v962q0 126 -23.5 175.5t-105.5 49.5v11h652q62 0 124 -14t122.5 -45.5t106.5 -77.5t74.5 -116t28.5 -155t-28.5 -154.5t-75 -115t-109.5 -77t-129 -45t-135 -13.5h-184v-385q1 -51 3 -81.5t9.5 -62t21 -47t37 -25.5t58.5 -10v-10 h-576zM508 631h156q37 0 65.5 15.5t46.5 46t29.5 65t16.5 83.5t7 89.5t2 95.5q0 101 -16 188t-55.5 148t-95.5 61h-27q-35 0 -58.5 -9.5t-37 -25t-21 -46.5t-9.5 -61.5t-3 -82.5v-567z" />
<glyph unicode="Q" horiz-adv-x="1714" d="M66 655q-3 38 -3 74q0 125 37 237q48 143 143.5 244.5t232.5 164.5t300 77q40 3 79 3q122 0 237 -30q153 -40 272 -123.5t196 -213.5t91 -287q4 -41 4 -81q0 -173 -68 -318q-83 -179 -242.5 -286t-369.5 -132q-24 -10 -69 -33.5t-78 -41.5l-33 -18q72 28 135 39 q44 9 87 9q18 0 37 -2q60 -5 106 -15t114 -31q11 -4 44 -14t46.5 -14.5t42.5 -12t44.5 -9t39.5 -3.5t40 2t34.5 11.5t33.5 19.5l7 -8q-76 -62 -146 -119q-3 -3 -26 -21.5t-30.5 -24t-29 -21t-34.5 -21.5t-33 -14.5t-39 -11.5t-39 -3q-52 1 -108 23.5t-100.5 52.5t-94.5 63 t-88 56t-82 30q-12 2 -22 2q-31 0 -56 -16q-16 -13 -41 -24q-37 -16 -53 6q-14 21 7 42q23 23 75 23q30 0 47 1t47 9t59 23q14 6 53 28t62 34q-35 -2 -69 -2q-94 0 -185 18q-123 24 -229 81t-188.5 139.5t-134 195.5t-62.5 243zM430 684q20 -196 95.5 -358t186.5 -252 q102 -83 210 -83q11 0 22 1q116 13 201.5 121t122.5 278q25 116 25 245q0 59 -5 120q-14 149 -62 280.5t-117 222.5t-157 141q-77 43 -156 43q-11 0 -22 -1q-117 -12 -203.5 -118.5t-123.5 -275.5q-24 -111 -24 -231q0 -65 7 -133z" />
<glyph unicode="R" horiz-adv-x="1480" d="M61 0v10q82 0 105.5 50.5t23.5 175.5v962q0 126 -23.5 175.5t-105.5 49.5v11h650q80 0 156 -19t145.5 -58.5t112 -111.5t42.5 -168q0 -85 -32.5 -151t-89 -106.5t-123 -64t-144.5 -32.5q65 -13 117 -39.5t86.5 -57.5t66.5 -80t52.5 -91.5t49.5 -107.5l4.5 -10.5t4 -9 t4.5 -10.5q25 -56 53.5 -104.5t67.5 -97t87 -77t99 -28.5v-10h-217q-39 0 -62.5 0.5t-68 5.5t-75 13.5t-65 26.5t-56.5 44q-48 54 -83.5 140.5t-56 165.5t-45 153t-64.5 120.5t-99 49.5h-70v-483q1 -51 3 -81.5t9.5 -62t21 -47t37 -25.5t58.5 -10v-10h-576zM508 729h156 q54 0 89.5 29.5t51.5 85t21 108t5 125.5q0 87 -16.5 163t-56 129.5t-94.5 53.5h-27q-35 0 -58.5 -9.5t-37 -25t-21 -46.5t-9.5 -61.5t-3 -82.5v-469z" />
<glyph unicode="S" horiz-adv-x="1105" d="M61 -76v527h11q0 -39 14 -93.5t47.5 -120t81.5 -120t125 -91t168 -36.5q52 0 94 13t68.5 34.5t44.5 50t25.5 57t7.5 58.5q0 78 -37.5 142.5t-97 110.5t-131.5 89t-144 89.5t-131.5 100t-97 133t-37.5 176.5q0 182 133.5 296t343.5 114q52 0 93 -7.5t102.5 -27.5t76.5 -24 q24 -6 42 -6q28 0 45 14q28 24 28 106h10v-526h-10q0 126 -44 229.5t-132.5 167.5t-206.5 64q-94 0 -146.5 -64t-52.5 -149q0 -67 38 -125.5t99 -103.5t134.5 -88.5t147 -92t134.5 -103.5t99 -132.5t38 -169.5q0 -192 -140.5 -314t-389.5 -122q-112 0 -268 38q-24 6 -37.5 9 t-38 5.5t-38.5 -2.5t-29.5 -15.5t-23 -34t-7.5 -56.5h-11z" />
<glyph unicode="T" horiz-adv-x="1402" d="M61 1116l39 318h1203l38 -318h-10q-21 48 -39 83.5t-49.5 80.5t-65.5 73.5t-84 48.5t-108 21q-34 -1 -56.5 -10.5t-36 -25.5t-20.5 -46.5t-9 -61t-3 -81.5v-962q1 -51 3 -81.5t9.5 -62t21 -47t37 -25.5t58.5 -10v-10h-575v10q82 0 105.5 50.5t23.5 175.5v962 q0 124 -23 174t-102 51q-58 -1 -108 -21.5t-83.5 -48t-65.5 -73.5t-49.5 -80t-39.5 -84h-11z" />
<glyph unicode="U" horiz-adv-x="1439" d="M61 1423v11h586v-11q-35 0 -58.5 -9.5t-37 -25t-21 -46.5t-9.5 -61.5t-3 -82.5v-792q0 -187 79.5 -299.5t233.5 -112.5q171 0 286.5 126t115.5 326v687q0 50 -0.5 76t-3 63t-7.5 55t-14.5 40t-24 32t-35 17t-48.5 7v11h278v-11q-32 0 -55.5 -7.5t-38 -27t-23 -39 t-12.5 -58.5t-5 -70t-1 -88v-697q-1 -92 -26.5 -169.5t-66.5 -129.5t-95 -88t-110.5 -52.5t-113.5 -16.5q-106 0 -193.5 12t-173 45.5t-144 86.5t-94.5 140.5t-36 202.5v731q0 126 -23.5 175.5t-105.5 49.5z" />
<glyph unicode="V" horiz-adv-x="1587" d="M51 1423v11h645v-11q-74 1 -86 -37q-3 -8 -3 -21q0 -42 32 -130q34 -90 158.5 -384.5t179.5 -420.5q192 542 211 602q34 88 38 178v19q0 77 -28 132q-32 62 -98 62v11h436v-11q-101 -18 -174.5 -92t-132.5 -225q-31 -79 -129.5 -355.5t-181.5 -513.5l-82 -237h-45 q-447 1018 -500 1149q-21 53 -33.5 80.5t-36.5 71t-45.5 65.5t-54.5 39.5t-70 17.5z" />
<glyph unicode="W" horiz-adv-x="2222" d="M51 1423v11h645v-11q-72 0 -90 -37q-7 -13 -6 -34q0 -36 21 -95q33 -88 156 -434t130 -366l320 977h51l364 -1012q197 609 205 649q15 61 17 121q0 12 1 23q-1 47 -9 90q-10 53 -41 85.5t-80 32.5v11h436v-11q-100 -17 -177.5 -99t-119.5 -218l-358 -1106h-46l-378 989 l-326 -989h-45q-356 952 -430 1149q-23 59 -37.5 92.5t-37 73.5t-44 60t-52.5 34t-69 14z" />
<glyph unicode="X" horiz-adv-x="1542" d="M51 1423v11h606v-11q-37 0 -52.5 -20t-10.5 -54t21 -73.5t42 -83.5q193 -327 197 -334q26 39 68.5 105t72.5 111t45 67q45 67 57 131q4 19 4 36q-1 42 -21 72q-28 44 -95 43v11h447v-11q-101 -18 -188.5 -78t-168.5 -174q-37 -51 -215 -321q265 -447 295 -494 q98 -156 147 -216q106 -130 189 -130v-10h-604v10q35 0 50.5 19.5t12 52t-17 68.5t-35.5 73q-40 64 -231 389q-34 -53 -78 -119t-83.5 -125.5t-49.5 -74.5q-45 -66 -57 -131q-4 -20 -4 -37q0 -41 20 -71q28 -44 94 -44v-10h-447v10q205 36 359 252q98 138 239 359 q-90 155 -245 415q-26 44 -43.5 73t-51 81.5t-63 87.5t-65 71.5t-71.5 55t-69 18.5z" />
<glyph unicode="Y" horiz-adv-x="1507" d="M51 1423v11h596v-11q-28 0 -41 -18t-11 -46.5t10.5 -57.5t21.5 -56q20 -38 162 -314t157 -306q5 14 70.5 188t81.5 219q34 96 38 185q1 11 1 21q0 75 -29 126q-32 59 -98 59v11h446v-11q-100 -17 -184 -100.5t-133 -216.5l-185 -485v-385q1 -51 3 -81.5t9.5 -62t21 -47 t37 -25.5t58.5 -10v-10h-575v10q82 0 105.5 50.5t23.5 175.5v356q-249 465 -272 510q-169 321 -314 321z" />
<glyph unicode="Z" horiz-adv-x="1210" d="M61 0v10l750 1413h-293q-74 0 -138 -24.5t-110 -67t-78.5 -89t-56.5 -101.5h-8l68 293h954v-11l-750 -1413h322q249 0 373 283h10l-70 -293h-973z" />
<glyph unicode="[" horiz-adv-x="399" d="M61 -51v1583h318v-10h-135v-1563h135v-10h-318z" />
<glyph unicode="\" horiz-adv-x="430" d="M61 1454h11l297 -1454h-11z" />
<glyph unicode="]" horiz-adv-x="399" d="M20 -41h134v1563h-134v10h318v-1583h-318v10z" />
<glyph unicode="^" horiz-adv-x="827" d="M61 1081l349 426h10l346 -426h-8l-344 420l-342 -420h-11z" />
<glyph unicode="_" d="M61 -10h576v-10h-576v10z" />
<glyph unicode="`" horiz-adv-x="360" d="M61 1393h183l55 -228h-10z" />
<glyph unicode="a" horiz-adv-x="1136" d="M63 193q2 61 26.5 105t60.5 68t89.5 42t102.5 26.5t112.5 22t106.5 28.5q58 21 88 45v189v33v51.5t-1 47t-3.5 42.5t-7 37.5t-11.5 32t-17.5 26t-24.5 19.5t-32.5 12t-41.5 4q-96 0 -159.5 -30.5t-88.5 -80.5q-12 -21 -6.5 -43t16 -35t24.5 -33t19 -38q4 -13 4 -25 q1 -29 -21 -53q-24 -27 -61 -26q-11 0 -22 2q-49 9 -69 59q-9 23 -9 49q0 30 13 64q14 32 41.5 63.5t71 63.5t109.5 51.5t144 19.5q63 0 120.5 -8.5t118 -32.5t104 -61t71.5 -99t28 -141v-477q0 -49 1.5 -77t6.5 -59t15.5 -46.5t29 -26t46.5 -10.5q41 0 69 22v-12 q-43 -24 -104 -24q-329 0 -367 190q-65 -138 -184 -172q-49 -16 -103 -20q-19 -2 -37 -1q-37 -1 -73 5q-56 8 -99.5 31.5t-70.5 69.5q-25 43 -25 101v9zM342 240q-2 -30 -2 -56q0 -100 33 -149q24 -35 64 -35q30 0 69 20q90 42 147 164q-4 24 -4 39v295q-29 -19 -78 -37 q-10 -4 -37.5 -13.5t-39.5 -14t-35.5 -16t-35.5 -21.5t-29 -27.5t-26 -37.5t-16.5 -48.5t-9.5 -62.5z" />
<glyph unicode="b" horiz-adv-x="1308" d="M41 1497v10h471v-10q-35 -17 -35 -307v-352q42 86 117.5 140t181.5 54q93 0 176 -33.5t149.5 -97t106 -165.5t39.5 -230q0 -526 -452 -526q-48 0 -88.5 11.5t-73.5 35.5t-48 38.5t-42 43.5q-29 29 -73 29h-1q-44 0 -94.5 -22t-94 -47.5t-72.5 -46.5l-28 -22h-10v1274 q-2 130 -26 176.5t-103 46.5zM477 506q0 -189 25 -283q27 -93 94 -158t147 -65q99 0 145 126t46 380q0 103 -4.5 176t-17 140t-34 108t-57.5 64.5t-86 23.5q-71 0 -148.5 -57t-109.5 -148v-307z" />
<glyph unicode="c" horiz-adv-x="1114" d="M63 471q-1 20 -1 40q0 86 25 161q31 92 87.5 154.5t134 108t161 68t171.5 27.5q16 1 32 1q121 0 221 -54q112 -61 148 -129q20 -36 20 -74q0 -21 -6 -42q-17 -61 -75 -70q-11 -2 -21 -2q-44 0 -72 32q-23 26 -24 59q0 16 6 33q6 18 18 34.5t22 26.5t17 21t5.5 25 t-14.5 33q-32 46 -111 75q-65 24 -136 24q-15 0 -30 -1q-76 -6 -132.5 -57.5t-86.5 -131t-42 -171.5q-8 -58 -7 -117q0 -35 2 -70q7 -95 33 -180t70 -154t111 -109.5t148 -41.5q80 0 168.5 38.5t130.5 86.5v-25q-120 -97 -297 -108q-32 -2 -63 -2q-60 0 -118 8 q-88 12 -175.5 46.5t-154.5 90t-112 144.5t-53 202z" />
<glyph unicode="d" horiz-adv-x="1292" d="M63 506q4 95 30.5 172.5t67 130t98 93t115.5 64.5t128 42q83 21 165 24q25 1 48 1q54 0 98 -5v246q0 130 -24.5 176.5t-104.5 46.5v10h471v-10q-33 -18 -33 -307v-954v-3q0 -130 24.5 -176.5t104.5 -46.5v-10h-473v10q22 10 31 142q-81 -172 -272 -172q-220 0 -352 140 q-123 130 -123 352q0 17 1 34zM373 502q0 -16 -1 -31q0 -123 22 -223q24 -114 74.5 -181t119.5 -67q74 0 131 47.5t92 124.5q2 41 2 145v703q-38 4 -82 4q-29 0 -60 -2q-80 -4 -120 -21q-92 -38 -133.5 -164t-44.5 -335z" />
<glyph unicode="e" horiz-adv-x="1177" d="M63 471q-1 15 -1 30q0 89 26 167q30 91 85.5 155t129.5 110.5t156.5 69.5t169.5 27q19 1 38 1q186 0 305 -81q131 -89 154 -268h-747q-12 -100 -12 -164q0 -24 2 -43q7 -95 32 -179.5t68.5 -154t111 -110t150.5 -41.5q88 0 189 39t155 90v-25q-163 -102 -342 -112 q-24 -1 -48 -1q-67 0 -133 10q-90 14 -176.5 51t-154 93t-110.5 143t-48 193zM379 688h459q-2 71 -13 128t-34 107q-23 51 -64 77q-36 23 -83 23q-7 0 -15 -1q-107 -6 -168 -97.5t-82 -236.5z" />
<glyph unicode="f" horiz-adv-x="700" d="M41 0v10q80 0 104.5 47.5t24.5 178.5v765h-113v11h113v108q0 98 26.5 172.5t66 115t93.5 65.5t98.5 32.5t92.5 7.5q66 0 117 -10.5t67 -19.5q38 -18 55 -50q15 -27 15 -54v-9q-3 -32 -21 -55t-52 -30q-9 -2 -19 -2q-24 0 -47 11q-33 17 -46 56q-5 19 0.5 49t11.5 51 t-1 37t-35 16q-21 0 -38 -4.5t-28.5 -16.5t-20 -22.5t-13.5 -32t-8 -35.5t-4 -42t-1.5 -43t0 -47.5t0.5 -45.5v-202h197v-11h-197v-765q0 -131 24.5 -178.5t104.5 -47.5v-10h-567z" />
<glyph unicode="g" horiz-adv-x="1112" d="M2 -324q-2 13 -2 26q0 35 15 64q20 39 54 61t85 36.5t95.5 19.5t96.5 6q93 0 158 -8v-20q-9 3 -25.5 7.5t-60.5 10.5q-26 4 -50 4q-16 0 -30 -2q-66 -8 -100 -56q-28 -41 -28 -107q0 -12 1 -25q7 -87 63.5 -141t136.5 -67q37 -6 77 -6q45 0 94 8q91 15 170 56 q57 29 97.5 65.5t59 70.5t21.5 66t-11 57t-42 38q-42 20 -169 33.5t-262.5 34.5t-203.5 61q-63 38 -74 108q-3 14 -3 28q0 53 36 94q17 19 48.5 34t49.5 20.5t59 16.5q-108 32 -180 106t-80 191q-1 13 -1 25q0 61 21 114q24 63 66.5 106t100 74.5t115 48t114.5 21.5 q25 2 49 2l213 -45q14 56 39.5 100t50.5 62q35 26 72 26q10 0 20 -2q46 -9 60 -48q7 -17 7 -32q0 -24 -16 -43q-23 -29 -56 -29q-6 0 -11 1q-15 2 -33 11.5t-30 17.5t-28.5 7t-33.5 -17q-19 -19 -35 -56q196 -87 207 -276q1 -10 1 -20q0 -62 -22 -115q-25 -63 -67.5 -106 t-99.5 -75t-114.5 -49t-113.5 -22q-28 -3 -55 -3q-76 0 -149 21q-26 -16 -26 -32q0 -23 52 -46q82 -36 252 -55q77 -9 125 -15t101 -15t84 -19t61.5 -24t47 -32.5t28.5 -42.5t16 -55q2 -17 2 -34q0 -117 -110 -222q-126 -121 -320 -176q-91 -26 -205 -28h-16q-105 0 -201 19 q-102 20 -175.5 69t-82.5 118zM377 762q-2 -33 -2 -70q0 -53 4 -114q15 -167 57 -248q40 -75 122 -75q8 0 15 1q64 7 98 56t39 128q3 35 3 75q0 51 -4 110q-15 167 -58 249q-40 75 -122 75q-8 0 -15 -1q-64 -7 -98 -56.5t-39 -129.5z" />
<glyph unicode="h" horiz-adv-x="1316" d="M41 0v10q79 0 103 47.5t26 178.5v1038q-1 51 -3 81.5t-9.5 61t-21 46t-37 25t-58.5 9.5v10h471v-10q-35 -17 -35 -307v-320q54 82 122.5 122t186.5 40q169 0 265 -93.5t96 -283.5v-419v-3q2 -130 26 -176.5t103 -46.5v-10h-565v10q79 0 104 48t25 178v458q0 140 -8 187 q-29 128 -132 131q-64 0 -126 -44.5t-97 -117.5v-614q0 -130 25 -178t104 -48v-10h-565z" />
<glyph unicode="i" horiz-adv-x="649" d="M41 0v10q80 0 104.5 47.5t24.5 178.5v542q0 130 -24.5 176.5t-104.5 46.5v11h471v-11q-33 -18 -33 -307v-458v-3q0 -130 24.5 -176.5t104.5 -46.5v-10h-567zM164 1339q0 70 47 119t113 49q68 0 114.5 -49t46.5 -119q0 -69 -47 -118.5t-114 -49.5q-66 0 -113 49.5 t-47 118.5z" />
<glyph unicode="j" horiz-adv-x="649" d="M0 -588q99 36 143.5 129.5t44.5 280.5v956q0 130 -24.5 176.5t-104.5 46.5v11h473v-11q-34 -17 -34 -307v-848q0 -93 -31 -168.5t-80.5 -123.5t-117 -82t-133 -50t-136.5 -22v12zM182 1339q0 70 47 119t115 49q66 0 113 -49t47 -119q0 -69 -47 -118.5t-113 -49.5 q-67 0 -114.5 49.5t-47.5 118.5z" />
<glyph unicode="k" horiz-adv-x="1323" d="M41 0v10q80 0 104.5 46.5t24.5 176.5v1041q0 130 -24.5 176.5t-104.5 46.5v10h473v-10q-35 -17 -35 -307v-672q46 46 178.5 175.5t167.5 164.5q21 21 25.5 48.5t-10.5 51.5q-27 43 -129 43v11h438v-11q-50 0 -143.5 -38t-169.5 -109q-19 -19 -58 -57t-59 -56 q9 -15 65 -103t128.5 -201t101.5 -158q42 -66 69.5 -104.5t65 -81.5t72.5 -63t71 -20v-10h-442l-338 539l-33 -33v-273q0 -130 24.5 -176.5t104.5 -46.5v-10h-567z" />
<glyph unicode="l" horiz-adv-x="647" d="M41 0v10q79 0 103 47.5t26 178.5v1038q-2 130 -26 176.5t-103 46.5v10h471v-10q-35 -17 -35 -307v-954q0 -131 25 -178.5t104 -47.5v-10h-565z" />
<glyph unicode="m" horiz-adv-x="1968" d="M41 0v10q79 0 104 48t25 178v542q0 129 -25 176t-104 47v11h471v-11q-21 -10 -29 -120q50 77 114.5 114t178.5 37q260 0 334 -205q55 104 128.5 154.5t197.5 50.5q170 0 266 -93.5t96 -283.5v-419q0 -131 25 -178.5t104 -47.5v-10h-565v10q79 0 103 47.5t26 178.5v458 q0 143 -10 194q-26 124 -129 124q-69 0 -134 -54.5t-104 -140.5q25 -73 25 -162v-419q0 -131 24.5 -178.5t104.5 -47.5v-10h-568v10q80 0 104.5 47.5t24.5 178.5v458v25v59.5t-2.5 56.5t-7.5 56.5t-15 47t-24.5 40t-36.5 23.5t-51 10q-61 0 -118.5 -41.5t-92.5 -110.5 l-4 -624q2 -131 26 -178.5t103 -47.5v-10h-565z" />
<glyph unicode="n" horiz-adv-x="1318" d="M41 0v10q80 0 104.5 47.5t24.5 178.5v542q0 131 -24.5 177t-104.5 46v11h473v-11q-23 -11 -31 -120q51 76 119.5 113.5t183.5 37.5q171 0 267 -93.5t96 -283.5v-419v-3q0 -129 25 -176t104 -47v-10h-565v10q79 0 103 47.5t26 178.5v458v18q0 40 -0.5 60.5t-3 57.5 t-7.5 58t-15 48t-24.5 41t-37.5 24.5t-52 10.5q-62 0 -123 -42t-96 -110q-4 -45 -4 -166v-458q0 -131 24.5 -178.5t104.5 -47.5v-10h-567z" />
<glyph unicode="o" horiz-adv-x="1294" d="M63 457q-2 26 -2 51q1 97 31 180q38 105 111.5 174.5t169.5 112t207 55.5q36 4 72 4q74 0 150 -17q112 -25 205.5 -82t155.5 -155.5t68 -222.5q1 -18 1 -35q0 -103 -36 -195q-42 -107 -116 -179t-169.5 -115.5t-199.5 -50.5q-28 -2 -55 -2l-115 8q-85 12 -168 48 t-148.5 91t-109.5 140t-52 190zM380 667q-3 -35 -3 -72q0 -62 8 -126q16 -143 59 -253q44 -110 114 -172q62 -54 134 -55q9 0 19 1q62 6 106.5 54.5t65.5 125t29 172.5q3 37 2 76q0 61 -7 123q-21 221 -110 356q-83 126 -198 126q-9 0 -17 -1q-62 -6 -107 -55.5t-66 -126 t-29 -173.5z" />
<glyph unicode="p" horiz-adv-x="1263" d="M41 -391q80 0 104.5 46t24.5 177v946q0 131 -24.5 177t-104.5 46v11h471v-11q-15 -11 -23 -73q94 104 238 104q96 0 180.5 -33.5t151 -97t105 -165.5t38.5 -230t-37.5 -230t-103.5 -165.5t-151 -97t-183 -33.5q-153 0 -250 116v-264q1 -90 10.5 -134.5t37 -66.5t83.5 -22 v-10h-567v10zM477 109q43 -54 100.5 -83.5t110.5 -29.5q62 0 103 34t63.5 103.5t31.5 158t9 214.5t-9 215t-31.5 159t-63.5 104t-103 34q-49 0 -104.5 -28t-96.5 -77q-10 -82 -10 -219v-585z" />
<glyph unicode="q" horiz-adv-x="1316" d="M66 506q9 131 57 232.5t127 165t182 96t227 32.5q51 0 142 -10t182 -10h293v-11q-79 0 -104 -46.5t-25 -176.5v-946q0 -124 23.5 -173.5t105.5 -49.5v-10h-565v10q35 0 58.5 9.5t37 25t21 46t9.5 61t3 81.5v535q-24 -182 -106 -284.5t-222 -102.5q-221 0 -342 134 q-106 116 -106 327q0 32 2 65zM383 506q-2 -46 -2 -88q0 -60 4 -112q7 -91 28 -160.5t59 -107.5t91 -38q80 0 142.5 63.5t93.5 159.5q22 64 28.5 127t6.5 156q0 150 4 358q-3 97 -39 127.5t-154 30.5q-59 0 -103.5 -26t-72.5 -69t-46 -111.5t-26.5 -140.5t-13.5 -169z" />
<glyph unicode="r" horiz-adv-x="991" d="M41 0v10q80 0 104.5 47.5t24.5 178.5v542q0 131 -24.5 177t-104.5 46v11h471v-11q-30 -17 -33 -264q38 122 128.5 205t162.5 90q13 1 24 1q72 0 112 -37q33 -31 34 -75q0 -18 -6 -38q-8 -37 -40 -57q-29 -18 -59 -18h-5q-32 2 -60 15q-25 17 -39.5 44.5t-18 48.5 t-16 32.5t-37.5 3.5q-51 -15 -104 -86.5t-78 -156.5v-473q2 -131 26 -178.5t103 -47.5v-10h-565z" />
<glyph unicode="s" horiz-adv-x="960" d="M64 250q8 54 49 67q17 5 32 5q29 0 49 -17q30 -24 29 -62v-7q-1 -18 -12.5 -41.5t-21 -39.5t-9 -37.5t18.5 -41.5q31 -36 95.5 -61t143.5 -25q102 0 168 45t70 125v8q0 40 -18 72q-20 36 -54.5 61.5t-80 48.5t-96 44.5t-101.5 44.5t-96 53.5t-79 67.5q-35 38 -53 90 q-15 43 -15 94q0 11 1 22q7 130 109.5 198t252.5 68q134 0 226 -44.5t129 -98.5q28 -42 28 -84q1 -9 -1 -19q-8 -52 -52 -67q-15 -6 -29 -6q-23 1 -47 17q-34 24 -34 62v7q2 18 12.5 41t18.5 38.5t7 36t-18 39.5q-29 30 -82 49t-117 19q-79 0 -124.5 -40t-45.5 -114 q0 -46 35 -83t89.5 -64t120 -54.5t129 -62t113.5 -78.5q50 -43 76 -110q18 -47 18 -102q0 -24 -3 -50q-19 -133 -138 -207.5t-304 -74.5q-74 0 -138.5 17t-108 44t-71.5 52t-45 50q-28 41 -28 84q0 11 2 21z" />
<glyph unicode="t" horiz-adv-x="671" d="M41 1001v11h94v75q60 0 117.5 16t109.5 57t70 102h4h6v-250h183v-11h-183v-739q0 -60 3.5 -101t14 -82t33.5 -62t58 -21q43 0 90 20v-10q-50 -26 -129 -26q-36 0 -65 2t-70 9.5t-72.5 20t-64.5 37t-55 57.5t-36 83.5t-14 113.5v698h-94z" />
<glyph unicode="u" horiz-adv-x="1308" d="M31 1001v11h473v-11q-35 -17 -35 -307v-377v-25v-59.5t2.5 -56.5t7.5 -56t15 -46.5t24.5 -40t36.5 -23.5t51 -10q62 0 123 42t96 112q4 43 4 163v461q0 131 -24.5 177t-104.5 46v11h474v-11q-35 -17 -35 -307v-458v-3q0 -130 24.5 -176.5t104.5 -46.5v-10h-471v10 q19 10 28 123q-51 -77 -119.5 -115t-183.5 -38q-170 0 -266 93.5t-96 284.5v420q0 131 -24.5 177t-104.5 46z" />
<glyph unicode="v" horiz-adv-x="1107" d="M20 1001v11h502v-11q-52 1 -59 -29q-1 -5 -1 -12q0 -31 27 -96q172 -423 220 -534q125 356 141 397q15 39 19 87q1 17 1 34q0 30 -4 56q-7 42 -29.5 69.5t-56.5 27.5v11h307v-11q-135 -26 -208 -221l-281 -780h-45q-320 711 -365 809q-45 101 -66 130q-43 62 -102 62z " />
<glyph unicode="w" horiz-adv-x="1619" d="M20 1001v11h482v-11q-52 -1 -59 -31q-1 -5 -1 -12q0 -32 27 -94q26 -60 117 -279.5t102 -244.5l211 672h39l287 -699q26 82 57.5 179t54 163.5t23.5 71.5q20 55 22 117v8q0 58 -22 102q-24 47 -70 47v11h309v-11q-134 -26 -210 -221q-22 -56 -87 -251t-120 -362l-54 -167 h-43l-288 666l-209 -666h-43q-302 684 -357 809q-45 101 -66 130q-43 62 -102 62z" />
<glyph unicode="x" horiz-adv-x="1140" d="M31 1001v11h473v-11q-27 0 -38 -12.5t-7 -35t16 -49t33 -60.5q13 -21 143 -234q110 171 127 195q32 49 41 93q3 14 3 27q0 27 -13 47q-19 30 -66 29v11h310v-11q-73 -14 -132.5 -54t-117.5 -120q-106 -156 -148 -221q199 -323 219 -352q8 -11 29 -44t31.5 -49t31 -44 t35.5 -43t34 -32t37.5 -24.5t37.5 -7.5v-10h-473v10q25 0 35.5 13.5t7 36t-14 47.5t-26.5 51q-11 18 -70 114.5t-100 161.5q-60 -93 -150 -227q-32 -45 -41 -91q-3 -15 -3 -28q0 -27 13 -48q19 -30 66 -30v-10h-307v10q142 25 248 176q20 29 170 252q-155 250 -182 295 q-7 11 -30.5 48t-38 59.5t-40.5 57t-47 54t-47 34.5t-49 15z" />
<glyph unicode="y" horiz-adv-x="1114" d="M20 1001v11h474v-11q-52 0 -59 -29q-1 -6 -1 -12q0 -32 27 -96q22 -54 125.5 -295.5t113.5 -265.5q56 154 156 424q15 40 19 87q1 18 1 34q0 29 -4 56q-7 41 -29.5 69t-56.5 28v11h308v-11q-135 -26 -211 -221q-10 -27 -136.5 -381t-144.5 -399q-76 -207 -166.5 -322.5 t-187.5 -121.5h-11q-50 0 -93 26q-46 29 -54 86q-1 5 -1 10q0 30 23 54q25 27 60 30h7q31 0 61 -20q13 -10 23.5 -35t17 -47t18.5 -41.5t27 -20t43 18.5q57 47 118.5 151t104.5 232h-33q-324 711 -369 809q-45 100 -65 129q-44 63 -105 63z" />
<glyph unicode="z" horiz-adv-x="933" d="M61 0v10l514 991h-178q-52 0 -98.5 -19.5t-80.5 -52t-58 -68t-41 -73.5h-8l59 224h702v-11l-516 -991h213q99 0 174 65t111 150h8l-63 -225h-738z" />
<glyph unicode="{" horiz-adv-x="425" d="M70 0q11 58 36 117t49 98t47 89t29.5 90.5t-2.5 101.5q-10 48 -55 55q-17 2 -35.5 -2t-28.5 -9l-10 -5v51l11 -5.5t26.5 -8.5t36.5 -3q45 7 55 56q13 63 -3.5 125.5t-45.5 109t-63 118.5t-47 142q-27 156 53 247t225 120v-4q-97 -30 -136.5 -115.5t-6.5 -222.5 q10 -43 38 -102t53.5 -109.5t46.5 -104.5t20 -106.5t-29 -97.5q-42 -66 -174 -66q63 0 106.5 -12.5t67.5 -50.5q28 -45 29 -97.5t-20 -107t-46.5 -105t-53.5 -109.5t-38 -102q-33 -137 6.5 -222t136.5 -115v-7q-145 31 -225 122t-53 247z" />
<glyph unicode="|" horiz-adv-x="133" d="M61 -76v1598h11v-1598h-11z" />
<glyph unicode="}" horiz-adv-x="423" d="M63 398.5q1 52.5 29 97.5q24 38 67.5 50.5t106.5 12.5q-132 0 -174 66q-28 45 -29 97.5t20 106.5t46.5 104.5t53.5 109.5t38 102q31 137 -7.5 222.5t-135.5 115.5v4q68 -14 122.5 -41.5t95.5 -71t57 -108.5t1 -146q-13 -70 -46.5 -142t-62.5 -118.5t-45.5 -109 t-2.5 -125.5q10 -49 53 -56q18 -2 37 2.5t29 9.5l10 5v-51l-11 5.5t-27 8t-38 2.5q-43 -7 -53 -55q-14 -63 2.5 -125.5t45.5 -109t62.5 -119t46.5 -142.5q15 -81 -1 -146t-57 -109t-95.5 -71.5t-122.5 -42.5v7q97 30 135.5 115t7.5 222q-10 43 -38 102t-53.5 109.5 t-46.5 105t-20 107z" />
<glyph unicode="~" horiz-adv-x="913" d="M61 690l3 9q2 9 7.5 22.5t14.5 30t23 32.5t32.5 29.5t45 22t57.5 8.5q40 0 85 -14t70 -26.5t76 -39.5q44 -24 69 -36.5t63.5 -24t72.5 -11.5q46 0 80.5 18.5t51 45.5t23.5 49.5t7 38.5h10q0 -17 -7.5 -41t-25 -52.5t-54 -48.5t-85.5 -20q-36 0 -75 11.5t-65.5 24.5 t-70.5 38q-46 26 -73 39t-70 26t-82 13q-40 0 -72.5 -15t-50 -35.5t-29.5 -43.5t-16 -36t-4 -16z" />
<glyph unicode="&#xa1;" horiz-adv-x="356" d="M61 582q0 49 34.5 82.5t82.5 33.5q50 0 83.5 -33.5t33.5 -82.5q0 -48 -34 -82.5t-83 -34.5q-47 0 -82 35t-35 82zM63 -616q6 66 43 254.5t48 295.5q9 91 14 187t6 146v50h4h6q1 -178 19 -383q10 -104 47.5 -293t42.5 -257q5 -59 -23.5 -99.5t-91.5 -40.5q-62 0 -90 40 t-25 100z" />
<glyph unicode="&#xa2;" horiz-adv-x="1114" d="M63 473q-7 108 23 199t85 154t131 108.5t158.5 68.5t170.5 29v144h10v-144q140 7 252.5 -54.5t146.5 -127.5q33 -55 16 -116t-75 -70q-59 -9 -93.5 29.5t-17.5 90.5q6 18 18 35t22 27t17 21.5t5.5 25t-14.5 31.5q-33 47 -112.5 77t-164.5 23v-1018q46 -16 96 -16 q80 0 167.5 39t131.5 88v-25q-129 -100 -299 -110h-96v-146h-10v146q-83 4 -159 22.5t-149 57t-127 93t-90 136.5t-43 182zM375 477q7 -106 36.5 -198t86.5 -165.5t133 -103.5v1014q-74 -9 -128.5 -61.5t-83.5 -132t-40 -170t-4 -183.5z" />
<glyph unicode="&#xa3;" horiz-adv-x="1005" d="M41 0v10q42 0 82 16t79.5 51t68.5 102.5t42 160.5q22 162 -30 383h-183v10h181q-10 43 -43.5 160.5t-47 190t-10.5 137.5q2 61 23 109.5t55.5 79.5t74 52t86.5 32t85.5 15t77.5 4q210 0 307 -90q43 -38 47 -93.5t-27 -84.5q-23 -23 -57.5 -26.5t-66 16t-40.5 59.5 q-2 17 -1.5 39.5t4.5 46t-0.5 45.5t-16 39.5t-42 28t-77.5 10.5q-124 0 -149 -84q-22 -75 30 -275q14 -55 60 -216q30 -118 43 -195h278v-10h-278q41 -287 -77.5 -462t-407.5 -251h282q211 0 345 71t216 208h11l-45 -289h-879z" />
<glyph unicode="&#xa4;" horiz-adv-x="925" d="M61 291l181 162q-88 91 -88 215q0 125 90 215l-183 164l21 20l168 -176q91 84 211 84q124 0 213 -86l170 178l20 -20l-182 -164q88 -91 88 -215q0 -122 -88 -213l182 -164l-20 -21l-168 176q-89 -86 -215 -86q-120 0 -211 84l-168 -174zM164 668q0 -123 87 -210t210 -87 q124 0 211.5 87t87.5 210t-87.5 210t-211.5 87q-123 0 -210 -87t-87 -210z" />
<glyph unicode="&#xa5;" horiz-adv-x="1507" d="M51 1423v11h596v-11q-28 0 -41 -18t-11 -46.5t10.5 -57.5t21.5 -56q228 -446 319 -618q4 10 38.5 100.5t68 180t45.5 124.5q34 96 38.5 185t-28 147.5t-98.5 58.5v11h446v-11q-100 -17 -184 -100.5t-133 -216.5l-185 -485v-21h181v-10h-181v-127h181v-10h-181v-217 q0 -126 23.5 -176t105.5 -50v-10h-575v10q82 0 105.5 50t23.5 176v217h-205v10h205v127h-205v10h201q-241 449 -268 502q-169 321 -314 321z" />
<glyph unicode="&#xa6;" horiz-adv-x="133" d="M61 -25v555h11v-555h-11zM61 918v555h11v-555h-11z" />
<glyph unicode="&#xa7;" horiz-adv-x="880" d="M63 1030q-4 94 39 170.5t112 124.5t158.5 80.5t173 45.5t161.5 13v-8q-43 0 -84 -13t-76.5 -39.5t-57.5 -72t-22 -104.5q0 -66 20 -131t52 -119t70 -107t76 -105.5t68.5 -104t48.5 -112.5t15 -122q-5 -111 -57.5 -195.5t-142 -136.5t-205 -78t-254.5 -26v8 q116 0 184 59.5t80 175.5q9 82 -23.5 163t-86 152t-108 142t-96 160t-45.5 180zM229 1087q0 -66 21 -130t53.5 -117t72 -106t78 -105t69.5 -104t47.5 -113.5t11.5 -124.5q-7 -90 -58 -154.5t-135 -99.5q106 38 180 123.5t84 216.5q5 60 -12 120.5t-47.5 112.5t-68.5 104.5 t-76.5 106t-70.5 107.5t-51.5 117.5t-17.5 127.5q6 139 125 217q-90 -47 -147.5 -122t-57.5 -177z" />
<glyph unicode="&#xa8;" horiz-adv-x="499" d="M61 1292q0 34 25.5 59t60.5 25q34 0 59 -25t25 -59q0 -35 -25 -60.5t-59 -25.5q-35 0 -60.5 25.5t-25.5 60.5zM270 1292q0 34 25 59t59 25q35 0 59.5 -25t24.5 -59q0 -35 -24.5 -60.5t-59.5 -25.5q-34 0 -59 25.5t-25 60.5z" />
<glyph unicode="&#xab;" horiz-adv-x="768" d="M61 698v11l433 348v-10l-361 -342l361 -343v-10zM274 698v11l433 348v-10l-361 -342l361 -343v-10z" />
<glyph unicode="&#xad;" horiz-adv-x="579" d="M61 569v11h457v-11h-457z" />
<glyph unicode="&#xaf;" horiz-adv-x="479" d="M61 1274v10h357v-10h-357z" />
<glyph unicode="&#xb0;" horiz-adv-x="411" d="M61 1311q0 60 42.5 102.5t101.5 42.5q60 0 102.5 -42.5t42.5 -102.5q0 -59 -42.5 -101.5t-102.5 -42.5q-59 0 -101.5 42.5t-42.5 101.5zM72 1311q0 -55 39 -94t94 -39q57 0 96 38.5t39 94.5q0 57 -39 96t-96 39q-56 0 -94.5 -39t-38.5 -96z" />
<glyph unicode="&#xb1;" d="M61 262v10h576v-10h-576zM61 645v8h283v285h10v-285h283v-8h-283v-283h-10v283h-283z" />
<glyph unicode="&#xb4;" horiz-adv-x="360" d="M61 1165l54 228h184l-227 -228h-11z" />
<glyph unicode="&#xb6;" horiz-adv-x="468" d="M61 1174q0 133 78 205.5t191 74.5v-561v-893h-11v893q-110 5 -184 78t-74 203zM399 0v1454h9v-1454h-9z" />
<glyph unicode="&#xb7;" horiz-adv-x="292" d="M61 1292q0 34 25.5 59t60.5 25q34 0 59 -25t25 -59q0 -35 -25 -60.5t-59 -25.5q-35 0 -60.5 25.5t-25.5 60.5z" />
<glyph unicode="&#xb8;" horiz-adv-x="378" d="M61 -203q31 -44 62 -55q27 -7 47.5 17t26.5 65q3 30 3.5 57.5t-18.5 46.5t-59 17q1 6 16 45l8 -2q-11 -26 -14 -37q103 9 151 -34.5t27 -111.5q-14 -52 -62.5 -73.5t-115.5 0.5q-43 11 -72 43v22z" />
<glyph unicode="&#xbb;" horiz-adv-x="768" d="M61 352v10l361 343l-361 342v10l431 -348v-11zM274 352v10l361 343l-361 342v10l433 -348v-11z" />
<glyph unicode="&#xbf;" horiz-adv-x="843" d="M70 -412q10 58 40 112t69.5 97.5t85 88t89 91.5t79 98t57.5 118.5t22 142.5h10q6 -109 -16 -214.5t-53.5 -177.5t-66.5 -167.5t-48 -173.5q-10 -60 -13 -109.5t3.5 -99.5t25.5 -84t56.5 -55t91.5 -21q65 0 117 24t81.5 64.5t46 90t12.5 103.5t-20.5 103t-51.5 89.5 t-81 62.5v30q57 -20 99 -71.5t61 -115t12.5 -132.5t-37.5 -125.5t-99.5 -93.5t-164.5 -37q-61 0 -118.5 8.5t-118.5 33.5t-102.5 64t-62 105t-5.5 151zM389 582q0 49 34.5 82.5t82.5 33.5q50 0 83.5 -33.5t33.5 -82.5q0 -48 -34 -82.5t-83 -34.5q-47 0 -82 35t-35 82z" />
<glyph unicode="&#xc0;" horiz-adv-x="1478" d="M0 0v10q100 19 174 94t133 224l432 1106h45q402 -1016 455 -1147q56 -134 88 -181q64 -96 152 -96v-10h-607v10q76 0 88 38t-30 151q-9 25 -28 76t-50 132.5t-53 139.5h-396q-13 -33 -26.5 -67.5t-21 -53.5t-9.5 -25q-32 -88 -36 -177t28.5 -151.5t97.5 -62.5v-10h-436z M406 555h389l-82.5 214.5t-76 198t-34.5 89.5q-33 -84 -101 -259t-95 -243zM512 1802h182l56 -227h-11z" />
<glyph unicode="&#xc1;" horiz-adv-x="1478" d="M0 0v10q100 19 174 94t133 224l432 1106h45q402 -1016 455 -1147q56 -134 88 -181q64 -96 152 -96v-10h-607v10q76 0 88 38t-30 151q-9 25 -28 76t-50 132.5t-53 139.5h-396q-13 -33 -26.5 -67.5t-21 -53.5t-9.5 -25q-32 -88 -36 -177t28.5 -151.5t97.5 -62.5v-10h-436z M406 555h389l-82.5 214.5t-76 198t-34.5 89.5q-33 -84 -101 -259t-95 -243zM778 1575l53 227h185l-228 -227h-10z" />
<glyph unicode="&#xc2;" horiz-adv-x="1478" d="M0 0v10q100 19 174 94t133 224l432 1106h45q402 -1016 455 -1147q56 -134 88 -181q64 -96 152 -96v-10h-607v10q76 0 88 38t-30 151q-9 25 -28 76t-50 132.5t-53 139.5h-396q-13 -33 -26.5 -67.5t-21 -53.5t-9.5 -25q-32 -88 -36 -177t28.5 -151.5t97.5 -62.5v-10h-436z M406 555h389l-82.5 214.5t-76 198t-34.5 89.5q-33 -84 -101 -259t-95 -243zM510 1575l192 227h119l195 -227h-10l-244 113l-242 -113h-10z" />
<glyph unicode="&#xc3;" horiz-adv-x="1478" d="M0 0v10q100 19 174 94t133 224l432 1106h45q402 -1016 455 -1147q56 -134 88 -181q64 -96 152 -96v-10h-607v10q76 0 88 38t-30 151q-9 25 -28 76t-50 132.5t-53 139.5h-396q-13 -33 -26.5 -67.5t-21 -53.5t-9.5 -25q-32 -88 -36 -177t28.5 -151.5t97.5 -62.5v-10h-436z M406 555h389l-82.5 214.5t-76 198t-34.5 89.5q-33 -84 -101 -259t-95 -243zM569 1628q12 148 93 158q21 2 62 -7t84 -20.5t54 -13.5q39 -6 55.5 1t22.5 32h10q4 -29 -2 -65t-28 -67.5t-58 -29.5q-35 2 -106 22.5t-94 22.5q-32 4 -53.5 -6.5t-28.5 -26.5h-11z" />
<glyph unicode="&#xc4;" horiz-adv-x="1478" d="M0 0v10q100 19 174 94t133 224l432 1106h45q402 -1016 455 -1147q56 -134 88 -181q64 -96 152 -96v-10h-607v10q76 0 88 38t-30 151q-9 25 -28 76t-50 132.5t-53 139.5h-396q-13 -33 -26.5 -67.5t-21 -53.5t-9.5 -25q-32 -88 -36 -177t28.5 -151.5t97.5 -62.5v-10h-436z M406 555h389l-82.5 214.5t-76 198t-34.5 89.5q-33 -84 -101 -259t-95 -243zM573 1702q0 34 25.5 59t60.5 25q34 0 59 -25t25 -59q0 -35 -25 -60.5t-59 -25.5q-35 0 -60.5 25.5t-25.5 60.5zM782 1702q0 34 25 59t59 25q35 0 59.5 -25t24.5 -59q0 -35 -24.5 -60.5t-59.5 -25.5 q-34 0 -59 25.5t-25 60.5z" />
<glyph unicode="&#xc5;" horiz-adv-x="1478" d="M0 0v10q100 19 174 94t133 224l432 1106h45q402 -1016 455 -1147q56 -134 88 -181q64 -96 152 -96v-10h-607v10q76 0 88 38t-30 151q-9 25 -28 76t-50 132.5t-53 139.5h-396q-13 -33 -26.5 -67.5t-21 -53.5t-9.5 -25q-32 -88 -36 -177t28.5 -151.5t97.5 -62.5v-10h-436z M406 555h389l-82.5 214.5t-76 198t-34.5 89.5q-33 -84 -101 -259t-95 -243zM641 1669q0 49 34.5 84t84.5 35t84.5 -35t34.5 -84t-34.5 -84t-84.5 -35t-84.5 35t-34.5 84zM649 1669q0 -45 32.5 -76.5t78.5 -31.5q45 0 76.5 31.5t31.5 76.5q0 44 -32 76.5t-76 32.5 q-46 0 -78.5 -32.5t-32.5 -76.5z" />
<glyph unicode="&#xc6;" horiz-adv-x="2064" d="M0 0v10q94 17 179 94.5t177 221.5l699 1108h819l70 -297h-11q-24 55 -56.5 101.5t-78.5 90.5t-109.5 69t-136.5 25h-51q-35 0 -58.5 -9.5t-37 -25t-21 -46.5t-9.5 -61.5t-3 -82.5v-479h31q118 0 203.5 79t85.5 183h8v-535h-8q0 105 -85 184t-204 79h-31v-473 q1 -51 3 -81.5t9.5 -62t21 -47t37 -25.5t58.5 -10h115q59 0 115 24t97.5 60.5t79 86t61.5 92.5t44 89h10l-84 -362h-1013v10q82 0 105.5 50.5t23.5 175.5v309h-549q-77 -124 -90 -144q-49 -80 -69 -170.5t2 -155.5t87 -65v-10h-436zM512 555h543v862q-21 -35 -543 -862z" />
<glyph unicode="&#xc7;" horiz-adv-x="1456" d="M66 649q-10 143 25 267t104 215.5t166.5 159.5t213 107t244.5 50q155 15 373 -43q33 -9 54 -12.5t45 -1.5t37.5 14t22.5 38t9 66h10v-516h-10q0 41 -21 98.5t-66 122t-106.5 118t-153 85t-194.5 23.5q-111 -10 -195.5 -85.5t-129.5 -189t-63 -242t-7 -255.5 q8 -100 33.5 -195.5t70.5 -183.5t104 -153.5t141 -103.5t175 -36q246 8 447 199v-31q-97 -79 -195.5 -123t-249.5 -55q-12 0 -36 -1t-37 -1q-5 -15 -13 -31q105 9 153 -34.5t27 -111.5q-16 -52 -64.5 -73.5t-113.5 0.5q-40 10 -73 43v22q31 -44 61 -55q28 -7 48 16.5 t26 65.5q4 30 5 57.5t-18 46.5t-59 17q1 4 5 15.5t7 21.5q-121 1 -232 25.5t-211 77.5t-176 129.5t-124.5 187.5t-58.5 245z" />
<glyph unicode="&#xc8;" horiz-adv-x="1200" d="M61 0v10q82 0 105.5 50t23.5 176v962q0 125 -23.5 175t-105.5 50v11h949l69 -297h-10q-24 55 -56.5 101.5t-78.5 90.5t-109.5 69t-136.5 25h-51q-35 0 -58.5 -10t-37 -25.5t-21 -46.5t-9.5 -61.5t-3 -81.5v-479h31q117 0 201.5 79.5t84.5 184.5h11v-537h-11 q0 106 -84.5 185.5t-201.5 79.5h-31v-475q1 -52 3 -82.5t9.5 -61.5t21 -47t37 -25.5t58.5 -9.5h115q73 0 139.5 35t116 93t82.5 111.5t59 112.5h10l-84 -362h-1014zM395 1802h183l55 -227h-10z" />
<glyph unicode="&#xc9;" horiz-adv-x="1200" d="M61 0v10q82 0 105.5 50t23.5 176v962q0 125 -23.5 175t-105.5 50v11h949l69 -297h-10q-24 55 -56.5 101.5t-78.5 90.5t-109.5 69t-136.5 25h-51q-35 0 -58.5 -10t-37 -25.5t-21 -46.5t-9.5 -61.5t-3 -81.5v-479h31q117 0 201.5 79.5t84.5 184.5h11v-537h-11 q0 106 -84.5 185.5t-201.5 79.5h-31v-475q1 -52 3 -82.5t9.5 -61.5t21 -47t37 -25.5t58.5 -9.5h115q73 0 139.5 35t116 93t82.5 111.5t59 112.5h10l-84 -362h-1014zM662 1575l53 227h184l-227 -227h-10z" />
<glyph unicode="&#xca;" horiz-adv-x="1200" d="M61 0v10q82 0 105.5 50t23.5 176v962q0 125 -23.5 175t-105.5 50v11h949l69 -297h-10q-24 55 -56.5 101.5t-78.5 90.5t-109.5 69t-136.5 25h-51q-35 0 -58.5 -10t-37 -25.5t-21 -46.5t-9.5 -61.5t-3 -81.5v-479h31q117 0 201.5 79.5t84.5 184.5h11v-537h-11 q0 106 -84.5 185.5t-201.5 79.5h-31v-475q1 -52 3 -82.5t9.5 -61.5t21 -47t37 -25.5t58.5 -9.5h115q73 0 139.5 35t116 93t82.5 111.5t59 112.5h10l-84 -362h-1014zM426 1575l192 227h119l195 -227h-10l-244 113l-242 -113h-10z" />
<glyph unicode="&#xcb;" horiz-adv-x="1200" d="M61 0v10q82 0 105.5 50t23.5 176v962q0 125 -23.5 175t-105.5 50v11h949l69 -297h-10q-24 55 -56.5 101.5t-78.5 90.5t-109.5 69t-136.5 25h-51q-35 0 -58.5 -10t-37 -25.5t-21 -46.5t-9.5 -61.5t-3 -81.5v-479h31q117 0 201.5 79.5t84.5 184.5h11v-537h-11 q0 106 -84.5 185.5t-201.5 79.5h-31v-475q1 -52 3 -82.5t9.5 -61.5t21 -47t37 -25.5t58.5 -9.5h115q73 0 139.5 35t116 93t82.5 111.5t59 112.5h10l-84 -362h-1014zM469 1702q0 34 25.5 59t60.5 25q34 0 59 -25t25 -59q0 -35 -25 -60.5t-59 -25.5q-35 0 -60.5 25.5 t-25.5 60.5zM678 1702q0 34 25 59t59 25q35 0 59.5 -25t24.5 -59q0 -35 -24.5 -60.5t-59.5 -25.5q-34 0 -59 25.5t-25 60.5z" />
<glyph unicode="&#xcc;" d="M61 0v10q35 0 58.5 9.5t37 25.5t21 47t9.5 61.5t3 82.5v962q-1 51 -3 81.5t-9.5 61.5t-21 46.5t-37 25.5t-58.5 10v11h576v-11q-82 0 -105.5 -50t-23.5 -175v-962q0 -126 23.5 -176t105.5 -50v-10h-576zM127 1802h182l56 -227h-11z" />
<glyph unicode="&#xcd;" d="M61 0v10q35 0 58.5 9.5t37 25.5t21 47t9.5 61.5t3 82.5v962q-1 51 -3 81.5t-9.5 61.5t-21 46.5t-37 25.5t-58.5 10v11h576v-11q-82 0 -105.5 -50t-23.5 -175v-962q0 -126 23.5 -176t105.5 -50v-10h-576zM311 1575l54 227h184l-227 -227h-11z" />
<glyph unicode="&#xce;" d="M61 0v10q35 0 58.5 9.5t37 25.5t21 47t9.5 61.5t3 82.5v962q-1 51 -3 81.5t-9.5 61.5t-21 46.5t-37 25.5t-58.5 10v11h576v-11q-82 0 -105.5 -50t-23.5 -175v-962q0 -126 23.5 -176t105.5 -50v-10h-576zM96 1575l193 227h119l194 -227h-10l-244 113l-242 -113h-10z" />
<glyph unicode="&#xcf;" d="M61 0v10q35 0 58.5 9.5t37 25.5t21 47t9.5 61.5t3 82.5v962q-1 51 -3 81.5t-9.5 61.5t-21 46.5t-37 25.5t-58.5 10v11h576v-11q-82 0 -105.5 -50t-23.5 -175v-962q0 -126 23.5 -176t105.5 -50v-10h-576zM160 1702q0 34 25.5 59t60.5 25q34 0 59 -25t25 -59 q0 -35 -25 -60.5t-59 -25.5q-35 0 -60.5 25.5t-25.5 60.5zM369 1702q0 34 25 59t59 25q35 0 59.5 -25t24.5 -59q0 -35 -24.5 -60.5t-59.5 -25.5q-34 0 -59 25.5t-25 60.5z" />
<glyph unicode="&#xd0;" horiz-adv-x="1531" d="M61 0v10q35 0 58.5 9.5t37 25.5t21 47t9.5 61.5t3 82.5v473h-129v10h129v479q-1 52 -3 82.5t-9.5 61.5t-21 46.5t-37 25t-58.5 9.5v11h705q162 0 295 -54t222.5 -149.5t138 -227t48.5 -286.5t-48.5 -286.5t-138 -227t-222.5 -149.5t-295 -54h-705zM508 236 q0 -126 23.5 -176t105.5 -50h39q101 0 178 38t134 120.5t86.5 220t29.5 328.5t-29.5 328.5t-86.5 219.5t-134 120t-178 38h-39q-82 0 -105.5 -49.5t-23.5 -175.5v-479h317v-10h-317v-473z" />
<glyph unicode="&#xd1;" horiz-adv-x="1605" d="M41 0v10q108 0 181 105t73 282v834q-63 88 -121.5 140t-118.5 52v11h477l771 -1004v606q0 177 -73 282t-181 105v11h516v-11q-108 0 -180 -104.5t-72 -282.5v-1036h-60q-34 40 -479.5 612t-468.5 605v-820q0 -178 72 -282.5t180 -104.5v-10h-516zM649 1628q12 148 92 158 q21 2 62 -7t84.5 -20.5t54.5 -13.5q39 -6 55.5 1t22.5 32h10q4 -29 -2 -65t-28 -67.5t-58 -29.5q-35 2 -106.5 22.5t-94.5 22.5q-32 4 -53.5 -6.5t-28.5 -26.5h-10z" />
<glyph unicode="&#xd2;" horiz-adv-x="1714" d="M66 655q-14 165 34 308t143.5 245.5t232.5 166t300 77.5q131 10 256 -13t232 -78t190.5 -135t135 -189.5t61.5 -235.5q13 -171 -34.5 -318.5t-142 -252t-231 -169.5t-299.5 -79q-164 -13 -317 28.5t-272.5 127t-197 220t-91.5 297.5zM430 684q20 -196 95.5 -358 t187 -252.5t231.5 -81.5q117 13 200.5 117.5t120.5 273.5t23 373q-11 149 -58.5 281.5t-117.5 223t-159 139.5t-179 42q-117 -12 -203.5 -118.5t-123.5 -276t-17 -363.5zM528 1802h183l55 -227h-10z" />
<glyph unicode="&#xd3;" horiz-adv-x="1714" d="M66 655q-14 165 34 308t143.5 245.5t232.5 166t300 77.5q131 10 256 -13t232 -78t190.5 -135t135 -189.5t61.5 -235.5q13 -171 -34.5 -318.5t-142 -252t-231 -169.5t-299.5 -79q-164 -13 -317 28.5t-272.5 127t-197 220t-91.5 297.5zM430 684q20 -196 95.5 -358 t187 -252.5t231.5 -81.5q117 13 200.5 117.5t120.5 273.5t23 373q-11 149 -58.5 281.5t-117.5 223t-159 139.5t-179 42q-117 -12 -203.5 -118.5t-123.5 -276t-17 -363.5zM774 1575l53 227h185l-228 -227h-10z" />
<glyph unicode="&#xd4;" horiz-adv-x="1714" d="M66 655q-14 165 34 308t143.5 245.5t232.5 166t300 77.5q131 10 256 -13t232 -78t190.5 -135t135 -189.5t61.5 -235.5q13 -171 -34.5 -318.5t-142 -252t-231 -169.5t-299.5 -79q-164 -13 -317 28.5t-272.5 127t-197 220t-91.5 297.5zM430 684q20 -196 95.5 -358 t187 -252.5t231.5 -81.5q117 13 200.5 117.5t120.5 273.5t23 373q-11 149 -58.5 281.5t-117.5 223t-159 139.5t-179 42q-117 -12 -203.5 -118.5t-123.5 -276t-17 -363.5zM539 1575l192 227h119l194 -227h-10l-243 113l-242 -113h-10z" />
<glyph unicode="&#xd5;" horiz-adv-x="1714" d="M66 655q-14 165 34 308t143.5 245.5t232.5 166t300 77.5q131 10 256 -13t232 -78t190.5 -135t135 -189.5t61.5 -235.5q13 -171 -34.5 -318.5t-142 -252t-231 -169.5t-299.5 -79q-164 -13 -317 28.5t-272.5 127t-197 220t-91.5 297.5zM430 684q20 -196 95.5 -358 t187 -252.5t231.5 -81.5q117 13 200.5 117.5t120.5 273.5t23 373q-11 149 -58.5 281.5t-117.5 223t-159 139.5t-179 42q-117 -12 -203.5 -118.5t-123.5 -276t-17 -363.5zM578 1628q12 148 92 158q21 2 62 -7t84 -20.5t54 -13.5q39 -6 55.5 1t22.5 32h10q4 -29 -2 -65 t-28 -67.5t-58 -29.5q-35 2 -106 22.5t-94 22.5q-32 4 -53.5 -6.5t-28.5 -26.5h-10z" />
<glyph unicode="&#xd6;" horiz-adv-x="1714" d="M66 655q-14 165 34 308t143.5 245.5t232.5 166t300 77.5q131 10 256 -13t232 -78t190.5 -135t135 -189.5t61.5 -235.5q13 -171 -34.5 -318.5t-142 -252t-231 -169.5t-299.5 -79q-164 -13 -317 28.5t-272.5 127t-197 220t-91.5 297.5zM430 684q20 -196 95.5 -358 t187 -252.5t231.5 -81.5q117 13 200.5 117.5t120.5 273.5t23 373q-11 149 -58.5 281.5t-117.5 223t-159 139.5t-179 42q-117 -12 -203.5 -118.5t-123.5 -276t-17 -363.5zM582 1702q0 34 25.5 59t60.5 25q34 0 59 -25t25 -59q0 -35 -25 -60.5t-59 -25.5q-35 0 -60.5 25.5 t-25.5 60.5zM791 1702q0 34 24.5 59t58.5 25q35 0 59.5 -25t24.5 -59q0 -35 -24.5 -60.5t-59.5 -25.5q-34 0 -58.5 25.5t-24.5 60.5z" />
<glyph unicode="&#xd7;" horiz-adv-x="536" d="M61 375l199 200l-199 199l7 8l200 -200l199 200l8 -8l-201 -199l201 -200l-8 -6l-199 198l-200 -198z" />
<glyph unicode="&#xd8;" horiz-adv-x="1714" d="M66 655q-17 164 30.5 307t144 245.5t234.5 166.5t301 78q137 9 271 -16l28 106h10l-28 -108q244 -52 406 -220.5t188 -412.5q17 -166 -29.5 -312.5t-142.5 -252.5t-234.5 -173t-300.5 -81q-138 -12 -274 16l-31 -109h-10l30 111q-244 55 -405.5 227.5t-187.5 427.5z M430 684q18 -184 87 -339t169 -249l338 1250q-117 105 -250 96q-117 -12 -203.5 -118.5t-123.5 -276t-17 -363.5zM694 90q119 -110 250 -98q117 13 203.5 121t123.5 278.5t17 364.5q-20 184 -88.5 337.5t-167.5 245.5z" />
<glyph unicode="&#xd9;" horiz-adv-x="1439" d="M61 1423v11h586v-11q-35 0 -58.5 -9.5t-37 -25t-21 -46.5t-9.5 -61.5t-3 -82.5v-792q0 -187 79.5 -299.5t233.5 -112.5q171 0 286.5 126t115.5 326v687q0 50 -0.5 76t-3 63t-7.5 55t-14.5 40t-24 32t-35 17t-48.5 7v11h278v-11q-32 0 -55.5 -7.5t-38 -27t-23 -39 t-12.5 -58.5t-5 -70t-1 -88v-697q-1 -92 -26.5 -169.5t-66.5 -129.5t-95 -88t-110.5 -52.5t-113.5 -16.5q-106 0 -193.5 12t-173 45.5t-144 86.5t-94.5 140.5t-36 202.5v731q0 126 -23.5 175.5t-105.5 49.5zM662 1802h182l55 -227h-10z" />
<glyph unicode="&#xda;" horiz-adv-x="1439" d="M61 1423v11h586v-11q-35 0 -58.5 -9.5t-37 -25t-21 -46.5t-9.5 -61.5t-3 -82.5v-792q0 -187 79.5 -299.5t233.5 -112.5q171 0 286.5 126t115.5 326v687q0 50 -0.5 76t-3 63t-7.5 55t-14.5 40t-24 32t-35 17t-48.5 7v11h278v-11q-32 0 -55.5 -7.5t-38 -27t-23 -39 t-12.5 -58.5t-5 -70t-1 -88v-697q-1 -92 -26.5 -169.5t-66.5 -129.5t-95 -88t-110.5 -52.5t-113.5 -16.5q-106 0 -193.5 12t-173 45.5t-144 86.5t-94.5 140.5t-36 202.5v731q0 126 -23.5 175.5t-105.5 49.5zM846 1575l53 227h184l-227 -227h-10z" />
<glyph unicode="&#xdb;" horiz-adv-x="1439" d="M61 1423v11h586v-11q-35 0 -58.5 -9.5t-37 -25t-21 -46.5t-9.5 -61.5t-3 -82.5v-792q0 -187 79.5 -299.5t233.5 -112.5q171 0 286.5 126t115.5 326v687q0 50 -0.5 76t-3 63t-7.5 55t-14.5 40t-24 32t-35 17t-48.5 7v11h278v-11q-32 0 -55.5 -7.5t-38 -27t-23 -39 t-12.5 -58.5t-5 -70t-1 -88v-697q-1 -92 -26.5 -169.5t-66.5 -129.5t-95 -88t-110.5 -52.5t-113.5 -16.5q-106 0 -193.5 12t-173 45.5t-144 86.5t-94.5 140.5t-36 202.5v731q0 126 -23.5 175.5t-105.5 49.5zM610 1575l193 227h119l194 -227h-10l-244 113l-241 -113h-11z" />
<glyph unicode="&#xdc;" horiz-adv-x="1439" d="M61 1423v11h586v-11q-35 0 -58.5 -9.5t-37 -25t-21 -46.5t-9.5 -61.5t-3 -82.5v-792q0 -187 79.5 -299.5t233.5 -112.5q171 0 286.5 126t115.5 326v687q0 50 -0.5 76t-3 63t-7.5 55t-14.5 40t-24 32t-35 17t-48.5 7v11h278v-11q-32 0 -55.5 -7.5t-38 -27t-23 -39 t-12.5 -58.5t-5 -70t-1 -88v-697q-1 -92 -26.5 -169.5t-66.5 -129.5t-95 -88t-110.5 -52.5t-113.5 -16.5q-106 0 -193.5 12t-173 45.5t-144 86.5t-94.5 140.5t-36 202.5v731q0 126 -23.5 175.5t-105.5 49.5zM694 1702q0 34 25.5 59t60.5 25q34 0 59 -25t25 -59 q0 -35 -25 -60.5t-59 -25.5q-35 0 -60.5 25.5t-25.5 60.5zM903 1702q0 34 25 59t59 25q35 0 59.5 -25t24.5 -59q0 -35 -24.5 -60.5t-59.5 -25.5q-34 0 -59 25.5t-25 60.5z" />
<glyph unicode="&#xdd;" horiz-adv-x="1507" d="M51 1423v11h596v-11q-28 0 -41 -18t-11 -46.5t10.5 -57.5t21.5 -56q20 -38 162 -314t157 -306q5 14 70.5 188t81.5 219q34 96 38.5 185t-28 147.5t-98.5 58.5v11h446v-11q-100 -17 -184 -100.5t-133 -216.5l-185 -485v-385q1 -51 3 -81.5t9.5 -62t21 -47t37 -25.5 t58.5 -10v-10h-575v10q82 0 105.5 50.5t23.5 175.5v356q-249 465 -272 510q-169 321 -314 321zM840 1575l53 227h184l-227 -227h-10z" />
<glyph unicode="&#xde;" horiz-adv-x="1228" d="M61 0v10q35 0 58.5 9.5t37 25.5t21 47t9.5 61.5t3 82.5v962q-1 52 -3 82.5t-9.5 61.5t-21 46.5t-37 25t-58.5 9.5v11h574v-11q-81 0 -104 -49.5t-23 -175.5v-74h203q62 0 124 -14t122.5 -45.5t106.5 -77.5t74.5 -115.5t28.5 -154.5t-28.5 -154.5t-75 -116t-109 -78 t-129 -45.5t-135.5 -14h-182v-73q0 -126 23 -176t104 -50v-10h-574zM508 319h154q37 0 65.5 15.5t46.5 46.5t29.5 65.5t16.5 84.5t7 90.5t2 95.5q0 100 -16 187t-55.5 148.5t-95.5 61.5h-154v-795z" />
<glyph unicode="&#xdf;" horiz-adv-x="1443" d="M61 0v10q82 0 105.5 50t23.5 176v835q0 86 25 155.5t67.5 114.5t97 75.5t115.5 42t121 10.5t115 -15q69 -18 113 -59.5t58 -94t7.5 -109.5t-32.5 -110q-45 -90 -48 -161t29.5 -120.5t83 -89.5t115 -78t124 -76t111 -93.5t74.5 -120.5q15 -51 15.5 -102t-23.5 -97.5 t-62.5 -82t-100 -57t-136.5 -21.5q-84 0 -174 38q-26 11 -52.5 15t-55 -0.5t-46.5 -32t-18 -76.5h-11v516h11q0 -46 24.5 -121t64.5 -149.5t99 -128t119 -53.5q28 0 49 22t30 60.5t-0.5 98t-39.5 126.5q-27 61 -69 116t-78 91.5t-72.5 77.5t-55.5 84t-23 99t21 135t80 181 q43 86 40.5 160.5t-48.5 129t-123 69.5q-109 22 -166 -63.5t-57 -280.5v-860q1 -52 3 -82.5t9.5 -61.5t21 -47t37 -25.5t58.5 -9.5v-10h-576z" />
<glyph unicode="&#xe0;" horiz-adv-x="1136" d="M63 193q2 61 26.5 105t60.5 68t89.5 42t102.5 26.5t112.5 22t106.5 28.5q58 21 88 45v189v33v51.5t-1 47t-3.5 42.5t-7 37.5t-11.5 32t-17.5 26t-24.5 19.5t-32.5 12t-41.5 4q-96 0 -159.5 -30.5t-88.5 -80.5q-12 -21 -6.5 -43t16 -35t24.5 -33t19 -38 q13 -43 -17.5 -77.5t-82.5 -24.5q-48 9 -68.5 59t3.5 113q14 32 41.5 63.5t71 63.5t109.5 51.5t144 19.5q63 0 120.5 -8.5t118 -32.5t104 -61t71.5 -99t28 -141v-477q0 -49 1.5 -77t6.5 -59t15.5 -46.5t29 -26t46.5 -10.5q41 0 69 22v-12q-43 -24 -104 -24q-329 0 -367 190 q-65 -138 -184 -172q-48 -15 -102.5 -19.5t-110 4t-99.5 31.5t-71 69t-25 110zM342 240q-11 -144 31 -205t133 -15q90 42 147 164q-4 24 -4 39v295q-29 -19 -78 -37q-10 -4 -37.5 -13.5t-39.5 -14t-35.5 -16t-35.5 -21.5t-29 -27.5t-26 -37.5t-16.5 -48.5t-9.5 -62.5z M352 1393h183l55 -228h-10z" />
<glyph unicode="&#xe1;" horiz-adv-x="1136" d="M63 193q2 61 26.5 105t60.5 68t89.5 42t102.5 26.5t112.5 22t106.5 28.5q58 21 88 45v189v33v51.5t-1 47t-3.5 42.5t-7 37.5t-11.5 32t-17.5 26t-24.5 19.5t-32.5 12t-41.5 4q-96 0 -159.5 -30.5t-88.5 -80.5q-12 -21 -6.5 -43t16 -35t24.5 -33t19 -38 q13 -43 -17.5 -77.5t-82.5 -24.5q-48 9 -68.5 59t3.5 113q14 32 41.5 63.5t71 63.5t109.5 51.5t144 19.5q63 0 120.5 -8.5t118 -32.5t104 -61t71.5 -99t28 -141v-477q0 -49 1.5 -77t6.5 -59t15.5 -46.5t29 -26t46.5 -10.5q41 0 69 22v-12q-43 -24 -104 -24q-329 0 -367 190 q-65 -138 -184 -172q-48 -15 -102.5 -19.5t-110 4t-99.5 31.5t-71 69t-25 110zM342 240q-11 -144 31 -205t133 -15q90 42 147 164q-4 24 -4 39v295q-29 -19 -78 -37q-10 -4 -37.5 -13.5t-39.5 -14t-35.5 -16t-35.5 -21.5t-29 -27.5t-26 -37.5t-16.5 -48.5t-9.5 -62.5z M537 1165l53 228h184l-227 -228h-10z" />
<glyph unicode="&#xe2;" horiz-adv-x="1136" d="M63 193q2 61 26.5 105t60.5 68t89.5 42t102.5 26.5t112.5 22t106.5 28.5q58 21 88 45v189v33v51.5t-1 47t-3.5 42.5t-7 37.5t-11.5 32t-17.5 26t-24.5 19.5t-32.5 12t-41.5 4q-96 0 -159.5 -30.5t-88.5 -80.5q-12 -21 -6.5 -43t16 -35t24.5 -33t19 -38 q13 -43 -17.5 -77.5t-82.5 -24.5q-48 9 -68.5 59t3.5 113q14 32 41.5 63.5t71 63.5t109.5 51.5t144 19.5q63 0 120.5 -8.5t118 -32.5t104 -61t71.5 -99t28 -141v-477q0 -49 1.5 -77t6.5 -59t15.5 -46.5t29 -26t46.5 -10.5q41 0 69 22v-12q-43 -24 -104 -24q-329 0 -367 190 q-65 -138 -184 -172q-48 -15 -102.5 -19.5t-110 4t-99.5 31.5t-71 69t-25 110zM340 1165l192 228h119l195 -228h-10l-244 113l-242 -113h-10zM342 240q-11 -144 31 -205t133 -15q90 42 147 164q-4 24 -4 39v295q-29 -19 -78 -37q-10 -4 -37.5 -13.5t-39.5 -14t-35.5 -16 t-35.5 -21.5t-29 -27.5t-26 -37.5t-16.5 -48.5t-9.5 -62.5z" />
<glyph unicode="&#xe3;" horiz-adv-x="1136" d="M63 193q2 61 26.5 105t60.5 68t89.5 42t102.5 26.5t112.5 22t106.5 28.5q58 21 88 45v189v33v51.5t-1 47t-3.5 42.5t-7 37.5t-11.5 32t-17.5 26t-24.5 19.5t-32.5 12t-41.5 4q-96 0 -159.5 -30.5t-88.5 -80.5q-12 -21 -6.5 -43t16 -35t24.5 -33t19 -38 q13 -43 -17.5 -77.5t-82.5 -24.5q-48 9 -68.5 59t3.5 113q14 32 41.5 63.5t71 63.5t109.5 51.5t144 19.5q63 0 120.5 -8.5t118 -32.5t104 -61t71.5 -99t28 -141v-477q0 -49 1.5 -77t6.5 -59t15.5 -46.5t29 -26t46.5 -10.5q41 0 69 22v-12q-43 -24 -104 -24q-329 0 -367 190 q-65 -138 -184 -172q-48 -15 -102.5 -19.5t-110 4t-99.5 31.5t-71 69t-25 110zM342 240q-11 -144 31 -205t133 -15q90 42 147 164q-4 24 -4 39v295q-29 -19 -78 -37q-10 -4 -37.5 -13.5t-39.5 -14t-35.5 -16t-35.5 -21.5t-29 -27.5t-26 -37.5t-16.5 -48.5t-9.5 -62.5z M358 1219q11 147 93 157q21 2 62 -7t84 -20.5t54 -13.5q39 -6 55.5 1t22.5 32h10q4 -29 -2 -65t-28 -67.5t-58 -29.5q-35 2 -106 22.5t-94 22.5q-32 4 -53.5 -6t-28.5 -26h-11z" />
<glyph unicode="&#xe4;" horiz-adv-x="1136" d="M63 193q2 61 26.5 105t60.5 68t89.5 42t102.5 26.5t112.5 22t106.5 28.5q58 21 88 45v189v33v51.5t-1 47t-3.5 42.5t-7 37.5t-11.5 32t-17.5 26t-24.5 19.5t-32.5 12t-41.5 4q-96 0 -159.5 -30.5t-88.5 -80.5q-12 -21 -6.5 -43t16 -35t24.5 -33t19 -38 q13 -43 -17.5 -77.5t-82.5 -24.5q-48 9 -68.5 59t3.5 113q14 32 41.5 63.5t71 63.5t109.5 51.5t144 19.5q63 0 120.5 -8.5t118 -32.5t104 -61t71.5 -99t28 -141v-477q0 -49 1.5 -77t6.5 -59t15.5 -46.5t29 -26t46.5 -10.5q41 0 69 22v-12q-43 -24 -104 -24q-329 0 -367 190 q-65 -138 -184 -172q-48 -15 -102.5 -19.5t-110 4t-99.5 31.5t-71 69t-25 110zM342 240q-11 -144 31 -205t133 -15q90 42 147 164q-4 24 -4 39v295q-29 -19 -78 -37q-10 -4 -37.5 -13.5t-39.5 -14t-35.5 -16t-35.5 -21.5t-29 -27.5t-26 -37.5t-16.5 -48.5t-9.5 -62.5z M406 1292q0 34 25.5 59t60.5 25q34 0 58.5 -25t24.5 -59q0 -35 -24.5 -60.5t-58.5 -25.5q-35 0 -60.5 25.5t-25.5 60.5zM614 1292q0 34 25 59t59 25q35 0 59.5 -25t24.5 -59q0 -35 -24.5 -60.5t-59.5 -25.5q-34 0 -59 25.5t-25 60.5z" />
<glyph unicode="&#xe5;" horiz-adv-x="1136" d="M63 193q2 61 26.5 105t60.5 68t89.5 42t102.5 26.5t112.5 22t106.5 28.5q58 21 88 45v189v33v51.5t-1 47t-3.5 42.5t-7 37.5t-11.5 32t-17.5 26t-24.5 19.5t-32.5 12t-41.5 4q-96 0 -159.5 -30.5t-88.5 -80.5q-12 -21 -6.5 -43t16 -35t24.5 -33t19 -38 q13 -43 -17.5 -77.5t-82.5 -24.5q-48 9 -68.5 59t3.5 113q14 32 41.5 63.5t71 63.5t109.5 51.5t144 19.5q63 0 120.5 -8.5t118 -32.5t104 -61t71.5 -99t28 -141v-477q0 -49 1.5 -77t6.5 -59t15.5 -46.5t29 -26t46.5 -10.5q41 0 69 22v-12q-43 -24 -104 -24q-329 0 -367 190 q-65 -138 -184 -172q-48 -15 -102.5 -19.5t-110 4t-99.5 31.5t-71 69t-25 110zM342 240q-11 -144 31 -205t133 -15q90 42 147 164q-4 24 -4 39v295q-29 -19 -78 -37q-10 -4 -37.5 -13.5t-39.5 -14t-35.5 -16t-35.5 -21.5t-29 -27.5t-26 -37.5t-16.5 -48.5t-9.5 -62.5z M434 1260q0 49 34.5 83.5t84.5 34.5t84.5 -34.5t34.5 -83.5q0 -50 -35 -84.5t-84 -34.5t-84 34.5t-35 84.5zM442 1260q0 -46 32.5 -77.5t78.5 -31.5q45 0 77 32t32 77q0 44 -32.5 76t-76.5 32q-46 0 -78.5 -32t-32.5 -76z" />
<glyph unicode="&#xe6;" horiz-adv-x="1779" d="M63 195q2 60 26.5 104t60.5 68t89.5 42t102 26.5t112 22t105.5 27.5q73 26 109 62v172q0 43 -1 72t-4.5 64t-10 57.5t-18.5 45.5t-28.5 36.5t-41 21.5t-56.5 8q-96 0 -159.5 -30.5t-86.5 -80.5q-13 -21 -7.5 -43t15.5 -34.5t24.5 -33t20.5 -38.5q11 -43 -19.5 -76.5 t-82.5 -23.5q-48 8 -69 57.5t3 112.5q14 31 42 63t71.5 63t110 50.5t143.5 19.5q241 0 356 -112q144 102 363 112q213 9 344 -80t152 -268h-746q-13 -108 -4 -207q7 -96 31.5 -180t66 -154t108.5 -110.5t150 -40.5q86 -1 187 38.5t157 90.5v-25q-163 -102 -342 -112 q-96 -5 -190.5 10.5t-183 52.5t-158.5 105t-105 159q-61 -261 -231 -311q-48 -14 -102.5 -18.5t-110 4.5t-99.5 32t-70.5 69t-23.5 110zM340 242q-11 -144 31 -206t133 -16q138 67 190 306q-23 75 -26 145v64q-31 -28 -99 -54q-10 -4 -37.5 -13.5t-39.5 -14t-35.5 -15.5 t-35.5 -21.5t-29 -28t-26 -37t-16.5 -47.5t-9.5 -62zM983 690h459q-2 70 -13 126.5t-34 106.5t-64 76.5t-98 22.5q-107 -6 -168 -97t-82 -235z" />
<glyph unicode="&#xe7;" horiz-adv-x="1112" d="M63 473q-7 109 23.5 201t86.5 154.5t133.5 108t161 68t171.5 27.5q96 5 185.5 -27t141.5 -73.5t74 -81.5q20 -37 20.5 -78t-20.5 -71.5t-59 -36.5q-61 -9 -95.5 29t-17.5 91q6 18 18 35t21.5 27t17 21.5t5.5 25t-15 31.5q-32 47 -110.5 76.5t-165.5 23.5 q-76 -6 -132.5 -57.5t-86 -131.5t-41.5 -172t-6 -188q7 -94 33 -179t70 -154t111 -110t148 -42q80 0 168.5 39t130.5 86v-25q-122 -95 -297 -106q-27 -2 -82 -2q-3 -8 -10 -29q105 9 153 -34.5t27 -111.5q-16 -52 -64.5 -73.5t-115.5 0.5q-40 11 -72 43v22q30 -43 62 -55 q28 -7 48 16.5t26 65.5q4 30 5 57.5t-18.5 46.5t-60.5 17q2 4 6 14.5t8 20.5q-85 3 -163.5 20t-153.5 54.5t-131.5 92.5t-93.5 138t-44 186z" />
<glyph unicode="&#xe8;" horiz-adv-x="1177" d="M63 471q-5 106 25.5 197t85.5 155t129 110.5t156.5 69.5t169.5 27q212 9 343 -80t154 -268h-747q-16 -137 -10 -207q7 -95 32 -179.5t68.5 -154t111 -110t150.5 -41.5q88 0 189 39t155 90v-25q-163 -102 -342 -112q-91 -5 -181 9t-176.5 51t-154 93t-110.5 143t-48 193z M379 688h459q-2 71 -13 128t-34 107t-64 76.5t-98 22.5q-107 -6 -168 -97.5t-82 -236.5zM444 1393h183l55 -228h-10z" />
<glyph unicode="&#xe9;" horiz-adv-x="1177" d="M63 471q-5 106 25.5 197t85.5 155t129 110.5t156.5 69.5t169.5 27q212 9 343 -80t154 -268h-747q-16 -137 -10 -207q7 -95 32 -179.5t68.5 -154t111 -110t150.5 -41.5q88 0 189 39t155 90v-25q-163 -102 -342 -112q-91 -5 -181 9t-176.5 51t-154 93t-110.5 143t-48 193z M379 688h459q-2 71 -13 128t-34 107t-64 76.5t-98 22.5q-107 -6 -168 -97.5t-82 -236.5zM629 1165l53 228h184l-227 -228h-10z" />
<glyph unicode="&#xea;" horiz-adv-x="1177" d="M63 471q-5 106 25.5 197t85.5 155t129 110.5t156.5 69.5t169.5 27q212 9 343 -80t154 -268h-747q-16 -137 -10 -207q7 -95 32 -179.5t68.5 -154t111 -110t150.5 -41.5q88 0 189 39t155 90v-25q-163 -102 -342 -112q-91 -5 -181 9t-176.5 51t-154 93t-110.5 143t-48 193z M379 688h459q-2 71 -13 128t-34 107t-64 76.5t-98 22.5q-107 -6 -168 -97.5t-82 -236.5zM391 1165l193 228h118l195 -228h-10l-244 113l-242 -113h-10z" />
<glyph unicode="&#xeb;" horiz-adv-x="1177" d="M63 471q-5 106 25.5 197t85.5 155t129 110.5t156.5 69.5t169.5 27q212 9 343 -80t154 -268h-747q-16 -137 -10 -207q7 -95 32 -179.5t68.5 -154t111 -110t150.5 -41.5q88 0 189 39t155 90v-25q-163 -102 -342 -112q-91 -5 -181 9t-176.5 51t-154 93t-110.5 143t-48 193z M379 688h459q-2 71 -13 128t-34 107t-64 76.5t-98 22.5q-107 -6 -168 -97.5t-82 -236.5zM457 1292q0 34 25.5 59t60.5 25q34 0 59 -25t25 -59q0 -35 -25 -60.5t-59 -25.5q-35 0 -60.5 25.5t-25.5 60.5zM666 1292q0 34 25 59t59 25q35 0 59.5 -25t24.5 -59q0 -35 -24.5 -60.5 t-59.5 -25.5q-34 0 -59 25.5t-25 60.5z" />
<glyph unicode="&#xec;" horiz-adv-x="649" d="M41 0v10q80 0 104.5 47.5t24.5 178.5v542q0 130 -24.5 176.5t-104.5 46.5v11h471v-11q-33 -18 -33 -307v-458v-3q0 -130 24.5 -176.5t104.5 -46.5v-10h-567zM123 1393h182l55 -228h-10z" />
<glyph unicode="&#xed;" horiz-adv-x="649" d="M41 0v10q80 0 104.5 47.5t24.5 178.5v542q0 130 -24.5 176.5t-104.5 46.5v11h471v-11q-33 -18 -33 -307v-458v-3q0 -130 24.5 -176.5t104.5 -46.5v-10h-567zM287 1165l53 228h184l-227 -228h-10z" />
<glyph unicode="&#xee;" horiz-adv-x="649" d="M41 0v10q80 0 104.5 47.5t24.5 178.5v542q0 130 -24.5 176.5t-104.5 46.5v11h471v-11q-33 -18 -33 -307v-458v-3q0 -130 24.5 -176.5t104.5 -46.5v-10h-567zM51 1165l193 228h118l195 -228h-10l-244 113l-242 -113h-10z" />
<glyph unicode="&#xef;" horiz-adv-x="649" d="M41 0v10q80 0 104.5 47.5t24.5 178.5v542q0 130 -24.5 176.5t-104.5 46.5v11h471v-11q-33 -18 -33 -307v-458v-3q0 -130 24.5 -176.5t104.5 -46.5v-10h-567zM135 1292q0 34 25.5 59t60.5 25q34 0 59 -25t25 -59q0 -35 -25 -60.5t-59 -25.5q-35 0 -60.5 25.5t-25.5 60.5z M344 1292q0 34 25 59t59 25q35 0 59.5 -25t24.5 -59q0 -35 -24.5 -60.5t-59.5 -25.5q-34 0 -59 25.5t-25 60.5z" />
<glyph unicode="&#xf0;" horiz-adv-x="1196" d="M66 457q-25 246 113.5 399t375.5 176q80 8 201 -49q-60 142 -107 217l-131 -92l-6 8l131 92q-78 119 -201 215v11q170 -68 299 -156l113 80l8 -6l-112 -80q396 -271 383 -721q-7 -255 -130.5 -402.5t-338.5 -166.5q-155 -13 -282.5 35.5t-213 162t-102.5 277.5z M367 756.5q-7 -121.5 6 -285.5q25 -257 91 -378t198 -103q208 24 157 553q-8 84 -19 150.5t-31 131t-46 107t-65.5 67.5t-88.5 23q-95 -3 -145 -73.5t-57 -192z" />
<glyph unicode="&#xf1;" horiz-adv-x="1318" d="M41 0v10q80 0 104.5 47.5t24.5 178.5v542q0 131 -24.5 177t-104.5 46v11h473v-11q-23 -11 -31 -120q51 76 119.5 113.5t183.5 37.5q171 0 267 -93.5t96 -283.5v-419v-3q0 -129 25 -176t104 -47v-10h-565v10q79 0 103 47.5t26 178.5v458v18q0 40 -0.5 60.5t-3 57.5 t-7.5 58t-15 48t-24.5 41t-37.5 24.5t-52 10.5q-62 0 -123 -42t-96 -110q-4 -45 -4 -166v-458q0 -131 24.5 -178.5t104.5 -47.5v-10h-567zM485 1219q11 147 93 157q21 2 62 -7t84 -20.5t54 -13.5q39 -6 55.5 1t22.5 32h10q4 -29 -2 -65t-28 -67.5t-58 -29.5q-35 2 -106 22.5 t-94 22.5q-32 4 -53.5 -6t-28.5 -26h-11z" />
<glyph unicode="&#xf2;" horiz-adv-x="1294" d="M63 457q-10 126 28.5 231t112 174.5t169.5 112t207 55.5q111 12 222.5 -13t205 -82t155.5 -155.5t68 -222.5q7 -123 -35 -230t-116 -179t-169.5 -115.5t-199.5 -50.5q-85 -6 -170 6.5t-168 48t-148.5 90.5t-109.5 140t-52 190zM379.5 667q-7.5 -97 5.5 -198 q16 -143 59.5 -253.5t113 -172t153.5 -53.5q62 6 106.5 54.5t65.5 125t28.5 173t-4.5 198.5q-21 221 -110 356t-215 125q-62 -6 -107 -55.5t-66.5 -126t-29 -173.5zM444 1393h183l55 -228h-10z" />
<glyph unicode="&#xf3;" horiz-adv-x="1294" d="M63 457q-10 126 28.5 231t112 174.5t169.5 112t207 55.5q111 12 222.5 -13t205 -82t155.5 -155.5t68 -222.5q7 -123 -35 -230t-116 -179t-169.5 -115.5t-199.5 -50.5q-85 -6 -170 6.5t-168 48t-148.5 90.5t-109.5 140t-52 190zM379.5 667q-7.5 -97 5.5 -198 q16 -143 59.5 -253.5t113 -172t153.5 -53.5q62 6 106.5 54.5t65.5 125t28.5 173t-4.5 198.5q-21 221 -110 356t-215 125q-62 -6 -107 -55.5t-66.5 -126t-29 -173.5zM588 1165l53 228h184l-227 -228h-10z" />
<glyph unicode="&#xf4;" horiz-adv-x="1294" d="M63 457q-10 126 28.5 231t112 174.5t169.5 112t207 55.5q111 12 222.5 -13t205 -82t155.5 -155.5t68 -222.5q7 -123 -35 -230t-116 -179t-169.5 -115.5t-199.5 -50.5q-85 -6 -170 6.5t-168 48t-148.5 90.5t-109.5 140t-52 190zM371 1165l192 228h119l195 -228h-11 l-243 113l-242 -113h-10zM379.5 667q-7.5 -97 5.5 -198q16 -143 59.5 -253.5t113 -172t153.5 -53.5q62 6 106.5 54.5t65.5 125t28.5 173t-4.5 198.5q-21 221 -110 356t-215 125q-62 -6 -107 -55.5t-66.5 -126t-29 -173.5z" />
<glyph unicode="&#xf5;" horiz-adv-x="1294" d="M63 457q-10 126 28.5 231t112 174.5t169.5 112t207 55.5q111 12 222.5 -13t205 -82t155.5 -155.5t68 -222.5q7 -123 -35 -230t-116 -179t-169.5 -115.5t-199.5 -50.5q-85 -6 -170 6.5t-168 48t-148.5 90.5t-109.5 140t-52 190zM379.5 667q-7.5 -97 5.5 -198 q16 -143 59.5 -253.5t113 -172t153.5 -53.5q62 6 106.5 54.5t65.5 125t28.5 173t-4.5 198.5q-21 221 -110 356t-215 125q-62 -6 -107 -55.5t-66.5 -126t-29 -173.5zM430 1219q2 27 5.5 46t12.5 46.5t28 44t46 20.5q21 2 62 -7t84.5 -20.5t54.5 -13.5q39 -6 55.5 1t22.5 32 h10q4 -29 -2 -65t-28 -67.5t-58 -29.5q-35 2 -106.5 22.5t-94.5 22.5q-32 4 -53.5 -6t-28.5 -26h-10z" />
<glyph unicode="&#xf6;" horiz-adv-x="1294" d="M63 457q-10 126 28.5 231t112 174.5t169.5 112t207 55.5q111 12 222.5 -13t205 -82t155.5 -155.5t68 -222.5q7 -123 -35 -230t-116 -179t-169.5 -115.5t-199.5 -50.5q-85 -6 -170 6.5t-168 48t-148.5 90.5t-109.5 140t-52 190zM379.5 667q-7.5 -97 5.5 -198 q16 -143 59.5 -253.5t113 -172t153.5 -53.5q62 6 106.5 54.5t65.5 125t28.5 173t-4.5 198.5q-21 221 -110 356t-215 125q-62 -6 -107 -55.5t-66.5 -126t-29 -173.5zM436 1292q0 34 25.5 59t60.5 25q34 0 59 -25t25 -59q0 -35 -25 -60.5t-59 -25.5q-35 0 -60.5 25.5 t-25.5 60.5zM645 1292q0 34 25 59t59 25q35 0 59.5 -25t24.5 -59q0 -35 -24.5 -60.5t-59.5 -25.5q-34 0 -59 25.5t-25 60.5z" />
<glyph unicode="&#xf7;" d="M61 569v11h576v-11h-576zM264 356q0 35 25 59.5t59 24.5q35 0 60.5 -24.5t25.5 -59.5t-25.5 -59.5t-60.5 -24.5q-34 0 -59 24.5t-25 59.5zM264 793q0 35 25 59.5t59 24.5q35 0 60.5 -24.5t25.5 -59.5q0 -34 -25.5 -59t-60.5 -25q-34 0 -59 25t-25 59z" />
<glyph unicode="&#xf8;" horiz-adv-x="1294" d="M63 457q-5 127 34 231t111.5 174t166.5 112.5t205 55.5q94 11 200 -8l31 111h10l-30 -113q85 -17 159.5 -55t135.5 -94.5t99.5 -137.5t45.5 -176q9 -123 -32 -230t-116 -179t-171.5 -115.5t-200.5 -50.5q-97 -6 -197 12l-31 -113h-10l31 115q-86 18 -161 53.5t-138 91 t-100.5 137t-41.5 179.5zM379.5 667q-7.5 -97 5.5 -198q25 -258 141 -393l234 866q-82 88 -178 80q-62 -6 -107 -55.5t-66.5 -126t-29 -173.5zM532 68q77 -87 179 -78q62 6 107.5 54.5t67 125t28.5 173t-7 198.5q-32 261 -141 391z" />
<glyph unicode="&#xf9;" horiz-adv-x="1308" d="M31 1001v11h473v-11q-35 -17 -35 -307v-377v-25v-59.5t2.5 -56.5t7.5 -56t15 -46.5t24.5 -40t36.5 -23.5t51 -10q62 0 123 42t96 112q4 43 4 163v461q0 131 -24.5 177t-104.5 46v11h474v-11q-35 -17 -35 -307v-458v-3q0 -130 24.5 -176.5t104.5 -46.5v-10h-471v10 q19 10 28 123q-51 -77 -119.5 -115t-183.5 -38q-170 0 -266 93.5t-96 284.5v420q0 131 -24.5 177t-104.5 46zM469 1393h182l56 -228h-11z" />
<glyph unicode="&#xfa;" horiz-adv-x="1308" d="M31 1001v11h473v-11q-35 -17 -35 -307v-377v-25v-59.5t2.5 -56.5t7.5 -56t15 -46.5t24.5 -40t36.5 -23.5t51 -10q62 0 123 42t96 112q4 43 4 163v461q0 131 -24.5 177t-104.5 46v11h474v-11q-35 -17 -35 -307v-458v-3q0 -130 24.5 -176.5t104.5 -46.5v-10h-471v10 q19 10 28 123q-51 -77 -119.5 -115t-183.5 -38q-170 0 -266 93.5t-96 284.5v420q0 131 -24.5 177t-104.5 46zM633 1165l53 228h184l-227 -228h-10z" />
<glyph unicode="&#xfb;" horiz-adv-x="1308" d="M31 1001v11h473v-11q-35 -17 -35 -307v-377v-25v-59.5t2.5 -56.5t7.5 -56t15 -46.5t24.5 -40t36.5 -23.5t51 -10q62 0 123 42t96 112q4 43 4 163v461q0 131 -24.5 177t-104.5 46v11h474v-11q-35 -17 -35 -307v-458v-3q0 -130 24.5 -176.5t104.5 -46.5v-10h-471v10 q19 10 28 123q-51 -77 -119.5 -115t-183.5 -38q-170 0 -266 93.5t-96 284.5v420q0 131 -24.5 177t-104.5 46zM395 1165l193 228h119l194 -228h-10l-244 113l-241 -113h-11z" />
<glyph unicode="&#xfc;" horiz-adv-x="1308" d="M31 1001v11h473v-11q-35 -17 -35 -307v-377v-25v-59.5t2.5 -56.5t7.5 -56t15 -46.5t24.5 -40t36.5 -23.5t51 -10q62 0 123 42t96 112q4 43 4 163v461q0 131 -24.5 177t-104.5 46v11h474v-11q-35 -17 -35 -307v-458v-3q0 -130 24.5 -176.5t104.5 -46.5v-10h-471v10 q19 10 28 123q-51 -77 -119.5 -115t-183.5 -38q-170 0 -266 93.5t-96 284.5v420q0 131 -24.5 177t-104.5 46zM461 1292q0 34 25.5 59t60.5 25q34 0 59 -25t25 -59q0 -35 -25 -60.5t-59 -25.5q-35 0 -60.5 25.5t-25.5 60.5zM670 1292q0 34 25 59t59 25q35 0 59.5 -25 t24.5 -59q0 -35 -24.5 -60.5t-59.5 -25.5q-34 0 -59 25.5t-25 60.5z" />
<glyph unicode="&#xfd;" horiz-adv-x="1114" d="M20 1001v11h474v-11q-52 0 -59 -29.5t26 -107.5q22 -54 125.5 -295.5t113.5 -265.5q56 154 156 424q15 40 19 87.5t-3 89t-29.5 69.5t-56.5 28v11h308v-11q-135 -26 -211 -221q-10 -27 -136.5 -381t-144.5 -399q-76 -207 -166.5 -322.5t-187.5 -121.5q-57 -3 -103.5 26 t-54.5 86q-4 36 21.5 63.5t60 30.5t68.5 -20q13 -10 23.5 -35t17 -47t18.5 -41.5t27 -20t43 18.5q57 47 118.5 151t104.5 232h-33q-324 711 -369 809q-45 100 -65 129q-44 63 -105 63zM643 1165l53 228h185l-228 -228h-10z" />
<glyph unicode="&#xfe;" horiz-adv-x="1263" d="M41 -412q80 0 104.5 47t24.5 177v946q0 131 -24.5 177t-104.5 46v10h471v-10q-32 -14 -35 -287q98 117 250 117q96 0 180.5 -33.5t151 -97t105 -165.5t38.5 -230t-37.5 -230t-103.5 -166t-151 -97.5t-183 -33.5q-152 0 -250 117v-63q2 -131 26 -177.5t103 -46.5v-10h-565 v10zM477 -113q43 -53 100.5 -82.5t110.5 -29.5q62 0 103 34t63.5 103.5t31.5 158t9 214.5t-9 215t-31.5 159t-63.5 104t-103 34q-53 0 -110.5 -30.5t-100.5 -84.5v-8v-787z" />
<glyph unicode="&#xff;" horiz-adv-x="1114" d="M20 1001v11h474v-11q-52 0 -59 -29.5t26 -107.5q22 -54 125.5 -295.5t113.5 -265.5q56 154 156 424q15 40 19 87.5t-3 89t-29.5 69.5t-56.5 28v11h308v-11q-135 -26 -211 -221q-10 -27 -136.5 -381t-144.5 -399q-76 -207 -166.5 -322.5t-187.5 -121.5q-57 -3 -103.5 26 t-54.5 86q-4 36 21.5 63.5t60 30.5t68.5 -20q13 -10 23.5 -35t17 -47t18.5 -41.5t27 -20t43 18.5q57 47 118.5 151t104.5 232h-33q-324 711 -369 809q-45 100 -65 129q-44 63 -105 63zM471 1292q0 34 25.5 59t60.5 25q34 0 59 -25t25 -59q0 -35 -25 -60.5t-59 -25.5 q-35 0 -60.5 25.5t-25.5 60.5zM680 1292q0 34 25 59t59 25q35 0 59.5 -25t24.5 -59q0 -35 -24.5 -60.5t-59.5 -25.5q-34 0 -59 25.5t-25 60.5z" />
<glyph unicode="&#x152;" horiz-adv-x="2021" d="M61 717q0 207 83.5 369t244.5 255t377 93h1046l70 -297h-10q-24 55 -56.5 101.5t-78.5 90.5t-110 69t-138 25h-49q-35 0 -58.5 -9.5t-37 -25t-21 -46.5t-9.5 -61.5t-3 -82.5v-479h30q117 0 202 79.5t85 184.5h10v-268v-269h-10q0 105 -85 184t-202 79h-30v-473 q1 -52 3 -82.5t9.5 -61.5t21 -47t37 -25.5t58.5 -9.5h114q59 0 114.5 24.5t96.5 60.5t79 86t62 93t44 88h10l-84 -362h-1110q-216 0 -377 93t-244.5 255t-83.5 369zM430 717q0 -191 29.5 -328.5t86 -220t133 -120.5t177.5 -38h8q82 0 105.5 50t23.5 176v962 q0 126 -23.5 175.5t-105.5 49.5h-8q-101 0 -177.5 -38t-133 -120t-86 -219.5t-29.5 -328.5z" />
<glyph unicode="&#x153;" horiz-adv-x="2041" d="M63 457q-5 127 34 231t111.5 174t166.5 112.5t205 55.5q136 14 269.5 -25.5t229.5 -127.5q78 72 186.5 110t227.5 43q213 9 344 -80t154 -268h-748q-13 -108 -4 -207q7 -96 31.5 -180t66.5 -153.5t109 -110t151 -41.5q86 0 187.5 40t154.5 89v-25q-163 -102 -342 -112 q-145 -8 -286 31t-238 128q-71 -69 -166 -110t-196 -49q-84 -6 -171 7t-171.5 49t-150.5 91t-108.5 140t-46.5 188zM379.5 667q-7.5 -97 5.5 -198q16 -143 59.5 -253.5t113 -172t153.5 -53.5q62 6 107.5 54.5t67 125t28.5 173t-7 198.5q-26 219 -113.5 355t-211.5 126 q-62 -6 -107 -55.5t-66.5 -126t-29 -173.5zM1245 690h457q-2 70 -13 127t-34 107t-64 76.5t-98 23.5q-107 -7 -168 -99t-80 -235z" />
<glyph unicode="&#x178;" horiz-adv-x="1507" d="M51 1423v11h596v-11q-28 0 -41 -18t-11 -46.5t10.5 -57.5t21.5 -56q20 -38 162 -314t157 -306q5 14 70.5 188t81.5 219q34 96 38.5 185t-28 147.5t-98.5 58.5v11h446v-11q-100 -17 -184 -100.5t-133 -216.5l-185 -485v-385q1 -51 3 -81.5t9.5 -62t21 -47t37 -25.5 t58.5 -10v-10h-575v10q82 0 105.5 50.5t23.5 175.5v356q-249 465 -272 510q-169 321 -314 321zM647 1702q0 34 25.5 59t60.5 25q34 0 59 -25t25 -59q0 -35 -25 -60.5t-59 -25.5q-35 0 -60.5 25.5t-25.5 60.5zM856 1702q0 34 25 59t59 25q35 0 59.5 -25t24.5 -59 q0 -35 -24.5 -60.5t-59.5 -25.5q-34 0 -59 25.5t-25 60.5z" />
<glyph unicode="&#x2c6;" horiz-adv-x="628" d="M61 1165l193 228h119l194 -228h-10l-244 113l-241 -113h-11z" />
<glyph unicode="&#x2dc;" horiz-adv-x="505" d="M61 1219q11 147 93 157q21 2 62 -7t84 -20.5t54 -13.5q39 -6 55.5 1t22.5 32h10q4 -29 -2 -65t-28 -67.5t-58 -29.5q-35 2 -106 22.5t-94 22.5q-32 4 -53.5 -6t-28.5 -26h-11z" />
<glyph unicode="&#x2000;" horiz-adv-x="901" />
<glyph unicode="&#x2001;" horiz-adv-x="1802" />
<glyph unicode="&#x2002;" horiz-adv-x="901" />
<glyph unicode="&#x2003;" horiz-adv-x="1802" />
<glyph unicode="&#x2004;" horiz-adv-x="600" />
<glyph unicode="&#x2005;" horiz-adv-x="450" />
<glyph unicode="&#x2006;" horiz-adv-x="300" />
<glyph unicode="&#x2007;" horiz-adv-x="300" />
<glyph unicode="&#x2008;" horiz-adv-x="225" />
<glyph unicode="&#x2009;" horiz-adv-x="360" />
<glyph unicode="&#x200a;" horiz-adv-x="100" />
<glyph unicode="&#x2010;" horiz-adv-x="579" d="M61 569v11h457v-11h-457z" />
<glyph unicode="&#x2011;" horiz-adv-x="579" d="M61 569v11h457v-11h-457z" />
<glyph unicode="&#x2012;" horiz-adv-x="579" d="M61 569v11h457v-11h-457z" />
<glyph unicode="&#x2013;" horiz-adv-x="727" d="M61 569v11h605v-11h-605z" />
<glyph unicode="&#x2014;" horiz-adv-x="892" d="M61 571v11h770v-11h-770z" />
<glyph unicode="&#x2018;" horiz-adv-x="303" d="M63 1311q-2 37 3 71t19.5 65t44 49t71.5 17v-6q-36 3 -63 -13.5t-40 -43t-18.5 -51t-5.5 -45.5q11 21 32.5 34t45.5 13q37 0 63.5 -26.5t26.5 -63.5t-26.5 -62.5t-63.5 -25.5t-62.5 25t-26.5 63z" />
<glyph unicode="&#x2019;" horiz-adv-x="305" d="M61 1423q0 37 27 63.5t64 26.5q36 0 61.5 -25.5t28.5 -64.5q2 -36 -4 -69.5t-20.5 -65t-44 -49.5t-71.5 -16v6q36 -3 63.5 13.5t40.5 43t19 51t6 45.5q-26 -47 -79 -47q-37 0 -64 26t-27 62z" />
<glyph unicode="&#x201a;" horiz-adv-x="303" d="M61 70q0 37 26.5 62.5t64.5 25.5q37 0 61.5 -25t26.5 -63q2 -51 -7.5 -94.5t-42.5 -77t-88 -31.5v6q48 -3 78.5 27.5t39.5 63.5t9 63q-11 -21 -32 -34t-45 -13q-38 0 -64.5 26.5t-26.5 63.5z" />
<glyph unicode="&#x201c;" horiz-adv-x="514" d="M63 1311q-2 37 3 71t19.5 65t44 49t71.5 17v-6q-36 3 -63 -13.5t-40 -43t-18.5 -51t-5.5 -45.5q11 21 32.5 34t45.5 13q37 0 63.5 -26.5t26.5 -63.5t-26.5 -62.5t-63.5 -25.5t-62.5 25t-26.5 63zM272 1311q-2 37 4 70.5t20.5 65t44 49.5t71.5 17v-6q-36 3 -63.5 -13.5 t-40.5 -43t-19 -51t-6 -45.5q28 47 79 47q37 0 64 -26.5t27 -63.5q0 -36 -27 -62t-64 -26t-62 25t-28 63z" />
<glyph unicode="&#x201d;" horiz-adv-x="514" d="M61 1423q0 37 27 63.5t64 26.5t61.5 -26t26.5 -64q2 -36 -3 -69.5t-19.5 -65t-44 -49.5t-71.5 -16v6q48 -4 79 26t40 64t8 63q-23 -47 -77 -47q-37 0 -64 26t-27 62zM272 1423q0 37 26.5 63.5t63.5 26.5t62 -26t27 -64q2 -36 -3.5 -69.5t-19.5 -65t-43.5 -49.5t-71.5 -16 v6q36 -3 63 13.5t40 43t18.5 51t5.5 45.5q-23 -47 -78 -47q-37 0 -63.5 25.5t-26.5 62.5z" />
<glyph unicode="&#x201e;" horiz-adv-x="514" d="M61 70q0 36 27 62t64 26t61.5 -25t26.5 -63q3 -51 -6.5 -94.5t-43 -77t-88.5 -31.5v6q48 -3 78.5 27.5t39.5 63.5t9 63q-11 -21 -32 -34t-45 -13q-37 0 -64 26.5t-27 63.5zM272 70q0 37 26 62.5t64 25.5q37 0 62.5 -25t26.5 -63q2 -51 -7.5 -94.5t-42.5 -77t-88 -31.5v6 q48 -3 78.5 27.5t39.5 63.5t9 63q-11 -21 -32.5 -34t-45.5 -13q-38 0 -64 26.5t-26 63.5z" />
<glyph unicode="&#x2022;" horiz-adv-x="356" d="M61 778q0 47 35 82t82 35q49 0 83 -34.5t34 -82.5q0 -49 -33.5 -82.5t-83.5 -33.5q-48 0 -82.5 33.5t-34.5 82.5z" />
<glyph unicode="&#x2026;" horiz-adv-x="972" d="M61 96q0 47 35 82t82 35q49 0 83 -34.5t34 -82.5q0 -49 -33.5 -82.5t-83.5 -33.5q-48 0 -82.5 33.5t-34.5 82.5zM369 96q0 47 34.5 82t81.5 35q49 0 83 -34.5t34 -82.5q0 -49 -33.5 -82.5t-83.5 -33.5q-48 0 -82 33.5t-34 82.5zM678 96q0 47 35 82t82 35q49 0 82.5 -34.5 t33.5 -82.5q0 -50 -33.5 -83t-82.5 -33q-48 0 -82.5 33.5t-34.5 82.5z" />
<glyph unicode="&#x202f;" horiz-adv-x="360" />
<glyph unicode="&#x2039;" horiz-adv-x="555" d="M61 698v11l433 348v-10l-363 -342l363 -343v-10z" />
<glyph unicode="&#x203a;" horiz-adv-x="555" d="M61 352v10l361 343l-361 342v10l433 -348v-11z" />
<glyph unicode="&#x205f;" horiz-adv-x="450" />
<glyph unicode="&#x20ac;" horiz-adv-x="1536" d="M20 606v10h127q0 5 -1 16t-1 17q-6 71 0 135h-125v11h127q14 145 80 264.5t168 199.5t230 128t272 61q155 15 373 -43q33 -9 54.5 -12.5t45.5 -1.5t38 14t23 38t9 66h8v-516h-8q0 40 -21 98t-66.5 122.5t-107 118t-153 84.5t-193.5 22q-79 -7 -145 -47.5t-111 -102.5 t-77 -144t-48 -169.5t-18 -179.5h424v-11h-424q-2 -42 2 -116q4 -36 6 -52h366v-10h-364q13 -94 40.5 -182t72.5 -167t103 -137.5t136 -92t166 -31.5q240 5 447 199v-31q-49 -39 -87 -64t-92.5 -51.5t-121 -42t-146.5 -20.5q-158 -10 -304 22t-268 105t-204 200t-102 293 h-130z" />
<glyph unicode="&#x25fc;" horiz-adv-x="1013" d="M0 0v1014h1014v-1014h-1014z" />
</font>
</defs>
</svg>
